G04 #@! TF.GenerationSoftware,KiCad,Pcbnew,(5.1.8)-1*
G04 #@! TF.CreationDate,2020-11-23T14:08:16+01:00*
G04 #@! TF.ProjectId,MM1_SRAM_64k_A,4d4d315f-5352-4414-9d5f-36346b5f412e,R1*
G04 #@! TF.SameCoordinates,PX6b49d20PY52f83c0*
G04 #@! TF.FileFunction,Legend,Top*
G04 #@! TF.FilePolarity,Positive*
%FSLAX46Y46*%
G04 Gerber Fmt 4.6, Leading zero omitted, Abs format (unit mm)*
G04 Created by KiCad (PCBNEW (5.1.8)-1) date 2020-11-23 14:08:16*
%MOMM*%
%LPD*%
G01*
G04 APERTURE LIST*
%ADD10C,0.150000*%
%ADD11C,0.300000*%
%ADD12C,0.120000*%
G04 APERTURE END LIST*
D10*
X1761904Y-23000000D02*
X1666666Y-22952380D01*
X1523809Y-22952380D01*
X1380952Y-23000000D01*
X1285714Y-23095238D01*
X1238095Y-23190476D01*
X1190476Y-23380952D01*
X1190476Y-23523809D01*
X1238095Y-23714285D01*
X1285714Y-23809523D01*
X1380952Y-23904761D01*
X1523809Y-23952380D01*
X1619047Y-23952380D01*
X1761904Y-23904761D01*
X1809523Y-23857142D01*
X1809523Y-23523809D01*
X1619047Y-23523809D01*
X2761904Y-23000000D02*
X2666666Y-22952380D01*
X2523809Y-22952380D01*
X2380952Y-23000000D01*
X2285714Y-23095238D01*
X2238095Y-23190476D01*
X2190476Y-23380952D01*
X2190476Y-23523809D01*
X2238095Y-23714285D01*
X2285714Y-23809523D01*
X2380952Y-23904761D01*
X2523809Y-23952380D01*
X2619047Y-23952380D01*
X2761904Y-23904761D01*
X2809523Y-23857142D01*
X2809523Y-23523809D01*
X2619047Y-23523809D01*
X48190476Y-952380D02*
X48761904Y-952380D01*
X48476190Y-1952380D02*
X48476190Y-952380D01*
X49285714Y-952380D02*
X49476190Y-952380D01*
X49571428Y-1000000D01*
X49666666Y-1095238D01*
X49714285Y-1285714D01*
X49714285Y-1619047D01*
X49666666Y-1809523D01*
X49571428Y-1904761D01*
X49476190Y-1952380D01*
X49285714Y-1952380D01*
X49190476Y-1904761D01*
X49095238Y-1809523D01*
X49047619Y-1619047D01*
X49047619Y-1285714D01*
X49095238Y-1095238D01*
X49190476Y-1000000D01*
X49285714Y-952380D01*
X50142857Y-1952380D02*
X50142857Y-952380D01*
X50523809Y-952380D01*
X50619047Y-1000000D01*
X50666666Y-1047619D01*
X50714285Y-1142857D01*
X50714285Y-1285714D01*
X50666666Y-1380952D01*
X50619047Y-1428571D01*
X50523809Y-1476190D01*
X50142857Y-1476190D01*
D11*
X1571428Y-3178571D02*
X1571428Y-1678571D01*
X2071428Y-2750000D01*
X2571428Y-1678571D01*
X2571428Y-3178571D01*
X3285714Y-3178571D02*
X3285714Y-1678571D01*
X3785714Y-2750000D01*
X4285714Y-1678571D01*
X4285714Y-3178571D01*
X5785714Y-3178571D02*
X4928571Y-3178571D01*
X5357142Y-3178571D02*
X5357142Y-1678571D01*
X5214285Y-1892857D01*
X5071428Y-2035714D01*
X4928571Y-2107142D01*
X6071428Y-3321428D02*
X7214285Y-3321428D01*
X7500000Y-3107142D02*
X7714285Y-3178571D01*
X8071428Y-3178571D01*
X8214285Y-3107142D01*
X8285714Y-3035714D01*
X8357142Y-2892857D01*
X8357142Y-2750000D01*
X8285714Y-2607142D01*
X8214285Y-2535714D01*
X8071428Y-2464285D01*
X7785714Y-2392857D01*
X7642857Y-2321428D01*
X7571428Y-2250000D01*
X7500000Y-2107142D01*
X7500000Y-1964285D01*
X7571428Y-1821428D01*
X7642857Y-1750000D01*
X7785714Y-1678571D01*
X8142857Y-1678571D01*
X8357142Y-1750000D01*
X9857142Y-3178571D02*
X9357142Y-2464285D01*
X9000000Y-3178571D02*
X9000000Y-1678571D01*
X9571428Y-1678571D01*
X9714285Y-1750000D01*
X9785714Y-1821428D01*
X9857142Y-1964285D01*
X9857142Y-2178571D01*
X9785714Y-2321428D01*
X9714285Y-2392857D01*
X9571428Y-2464285D01*
X9000000Y-2464285D01*
X10428571Y-2750000D02*
X11142857Y-2750000D01*
X10285714Y-3178571D02*
X10785714Y-1678571D01*
X11285714Y-3178571D01*
X11785714Y-3178571D02*
X11785714Y-1678571D01*
X12285714Y-2750000D01*
X12785714Y-1678571D01*
X12785714Y-3178571D01*
X13142857Y-3321428D02*
X14285714Y-3321428D01*
X15285714Y-1678571D02*
X15000000Y-1678571D01*
X14857142Y-1750000D01*
X14785714Y-1821428D01*
X14642857Y-2035714D01*
X14571428Y-2321428D01*
X14571428Y-2892857D01*
X14642857Y-3035714D01*
X14714285Y-3107142D01*
X14857142Y-3178571D01*
X15142857Y-3178571D01*
X15285714Y-3107142D01*
X15357142Y-3035714D01*
X15428571Y-2892857D01*
X15428571Y-2535714D01*
X15357142Y-2392857D01*
X15285714Y-2321428D01*
X15142857Y-2250000D01*
X14857142Y-2250000D01*
X14714285Y-2321428D01*
X14642857Y-2392857D01*
X14571428Y-2535714D01*
X16714285Y-2178571D02*
X16714285Y-3178571D01*
X16357142Y-1607142D02*
X16000000Y-2678571D01*
X16928571Y-2678571D01*
X17500000Y-3178571D02*
X17500000Y-1678571D01*
X17642857Y-2607142D02*
X18071428Y-3178571D01*
X18071428Y-2178571D02*
X17500000Y-2750000D01*
X18357142Y-3321428D02*
X19500000Y-3321428D01*
X19785714Y-2750000D02*
X20500000Y-2750000D01*
X19642857Y-3178571D02*
X20142857Y-1678571D01*
X20642857Y-3178571D01*
D12*
X40560000Y-12000000D02*
X40560000Y-8140000D01*
X40560000Y-8140000D02*
X40315000Y-8140000D01*
X40560000Y-12000000D02*
X40560000Y-15860000D01*
X40560000Y-15860000D02*
X40315000Y-15860000D01*
X22440000Y-12000000D02*
X22440000Y-8140000D01*
X22440000Y-8140000D02*
X22685000Y-8140000D01*
X22440000Y-12000000D02*
X22440000Y-15860000D01*
X22440000Y-15860000D02*
X22685000Y-15860000D01*
X22685000Y-15860000D02*
X22685000Y-17675000D01*
X19765000Y-8738748D02*
X19765000Y-9261252D01*
X21235000Y-8738748D02*
X21235000Y-9261252D01*
X13500000Y-7440000D02*
X11700000Y-7440000D01*
X13500000Y-7440000D02*
X14300000Y-7440000D01*
X13500000Y-10560000D02*
X12700000Y-10560000D01*
X13500000Y-10560000D02*
X14300000Y-10560000D01*
X13500000Y-17560000D02*
X14300000Y-17560000D01*
X13500000Y-17560000D02*
X12700000Y-17560000D01*
X13500000Y-14440000D02*
X14300000Y-14440000D01*
X13500000Y-14440000D02*
X11700000Y-14440000D01*
D10*
X21052380Y-12761904D02*
X21861904Y-12761904D01*
X21957142Y-12714285D01*
X22004761Y-12666666D01*
X22052380Y-12571428D01*
X22052380Y-12380952D01*
X22004761Y-12285714D01*
X21957142Y-12238095D01*
X21861904Y-12190476D01*
X21052380Y-12190476D01*
X22052380Y-11190476D02*
X22052380Y-11761904D01*
X22052380Y-11476190D02*
X21052380Y-11476190D01*
X21195238Y-11571428D01*
X21290476Y-11666666D01*
X21338095Y-11761904D01*
X43166666Y-22452380D02*
X43166666Y-23166666D01*
X43119047Y-23309523D01*
X43023809Y-23404761D01*
X42880952Y-23452380D01*
X42785714Y-23452380D01*
X44166666Y-23452380D02*
X43595238Y-23452380D01*
X43880952Y-23452380D02*
X43880952Y-22452380D01*
X43785714Y-22595238D01*
X43690476Y-22690476D01*
X43595238Y-22738095D01*
X18857142Y-9166666D02*
X18904761Y-9214285D01*
X18952380Y-9357142D01*
X18952380Y-9452380D01*
X18904761Y-9595238D01*
X18809523Y-9690476D01*
X18714285Y-9738095D01*
X18523809Y-9785714D01*
X18380952Y-9785714D01*
X18190476Y-9738095D01*
X18095238Y-9690476D01*
X18000000Y-9595238D01*
X17952380Y-9452380D01*
X17952380Y-9357142D01*
X18000000Y-9214285D01*
X18047619Y-9166666D01*
X18047619Y-8785714D02*
X18000000Y-8738095D01*
X17952380Y-8642857D01*
X17952380Y-8404761D01*
X18000000Y-8309523D01*
X18047619Y-8261904D01*
X18142857Y-8214285D01*
X18238095Y-8214285D01*
X18380952Y-8261904D01*
X18952380Y-8833333D01*
X18952380Y-8214285D01*
X12738095Y-6052380D02*
X12738095Y-6861904D01*
X12785714Y-6957142D01*
X12833333Y-7004761D01*
X12928571Y-7052380D01*
X13119047Y-7052380D01*
X13214285Y-7004761D01*
X13261904Y-6957142D01*
X13309523Y-6861904D01*
X13309523Y-6052380D01*
X13690476Y-6052380D02*
X14309523Y-6052380D01*
X13976190Y-6433333D01*
X14119047Y-6433333D01*
X14214285Y-6480952D01*
X14261904Y-6528571D01*
X14309523Y-6623809D01*
X14309523Y-6861904D01*
X14261904Y-6957142D01*
X14214285Y-7004761D01*
X14119047Y-7052380D01*
X13833333Y-7052380D01*
X13738095Y-7004761D01*
X13690476Y-6957142D01*
X12738095Y-13052380D02*
X12738095Y-13861904D01*
X12785714Y-13957142D01*
X12833333Y-14004761D01*
X12928571Y-14052380D01*
X13119047Y-14052380D01*
X13214285Y-14004761D01*
X13261904Y-13957142D01*
X13309523Y-13861904D01*
X13309523Y-13052380D01*
X14261904Y-13052380D02*
X13785714Y-13052380D01*
X13738095Y-13528571D01*
X13785714Y-13480952D01*
X13880952Y-13433333D01*
X14119047Y-13433333D01*
X14214285Y-13480952D01*
X14261904Y-13528571D01*
X14309523Y-13623809D01*
X14309523Y-13861904D01*
X14261904Y-13957142D01*
X14214285Y-14004761D01*
X14119047Y-14052380D01*
X13880952Y-14052380D01*
X13785714Y-14004761D01*
X13738095Y-13957142D01*
M02*
