G04 #@! TF.GenerationSoftware,KiCad,Pcbnew,(5.1.8)-1*
G04 #@! TF.CreationDate,2020-11-23T14:08:16+01:00*
G04 #@! TF.ProjectId,MM1_SRAM_64k_A,4d4d315f-5352-4414-9d5f-36346b5f412e,R1*
G04 #@! TF.SameCoordinates,PX6b49d20PY52f83c0*
G04 #@! TF.FileFunction,Soldermask,Top*
G04 #@! TF.FilePolarity,Negative*
%FSLAX46Y46*%
G04 Gerber Fmt 4.6, Leading zero omitted, Abs format (unit mm)*
G04 Created by KiCad (PCBNEW (5.1.8)-1) date 2020-11-23 14:08:16*
%MOMM*%
%LPD*%
G01*
G04 APERTURE LIST*
%ADD10R,1.700000X7.500000*%
G04 APERTURE END LIST*
G36*
G01*
X23395000Y-8775000D02*
X23095000Y-8775000D01*
G75*
G02*
X22945000Y-8625000I0J150000D01*
G01*
X22945000Y-6875000D01*
G75*
G02*
X23095000Y-6725000I150000J0D01*
G01*
X23395000Y-6725000D01*
G75*
G02*
X23545000Y-6875000I0J-150000D01*
G01*
X23545000Y-8625000D01*
G75*
G02*
X23395000Y-8775000I-150000J0D01*
G01*
G37*
G36*
G01*
X24665000Y-8775000D02*
X24365000Y-8775000D01*
G75*
G02*
X24215000Y-8625000I0J150000D01*
G01*
X24215000Y-6875000D01*
G75*
G02*
X24365000Y-6725000I150000J0D01*
G01*
X24665000Y-6725000D01*
G75*
G02*
X24815000Y-6875000I0J-150000D01*
G01*
X24815000Y-8625000D01*
G75*
G02*
X24665000Y-8775000I-150000J0D01*
G01*
G37*
G36*
G01*
X25935000Y-8775000D02*
X25635000Y-8775000D01*
G75*
G02*
X25485000Y-8625000I0J150000D01*
G01*
X25485000Y-6875000D01*
G75*
G02*
X25635000Y-6725000I150000J0D01*
G01*
X25935000Y-6725000D01*
G75*
G02*
X26085000Y-6875000I0J-150000D01*
G01*
X26085000Y-8625000D01*
G75*
G02*
X25935000Y-8775000I-150000J0D01*
G01*
G37*
G36*
G01*
X27205000Y-8775000D02*
X26905000Y-8775000D01*
G75*
G02*
X26755000Y-8625000I0J150000D01*
G01*
X26755000Y-6875000D01*
G75*
G02*
X26905000Y-6725000I150000J0D01*
G01*
X27205000Y-6725000D01*
G75*
G02*
X27355000Y-6875000I0J-150000D01*
G01*
X27355000Y-8625000D01*
G75*
G02*
X27205000Y-8775000I-150000J0D01*
G01*
G37*
G36*
G01*
X28475000Y-8775000D02*
X28175000Y-8775000D01*
G75*
G02*
X28025000Y-8625000I0J150000D01*
G01*
X28025000Y-6875000D01*
G75*
G02*
X28175000Y-6725000I150000J0D01*
G01*
X28475000Y-6725000D01*
G75*
G02*
X28625000Y-6875000I0J-150000D01*
G01*
X28625000Y-8625000D01*
G75*
G02*
X28475000Y-8775000I-150000J0D01*
G01*
G37*
G36*
G01*
X29745000Y-8775000D02*
X29445000Y-8775000D01*
G75*
G02*
X29295000Y-8625000I0J150000D01*
G01*
X29295000Y-6875000D01*
G75*
G02*
X29445000Y-6725000I150000J0D01*
G01*
X29745000Y-6725000D01*
G75*
G02*
X29895000Y-6875000I0J-150000D01*
G01*
X29895000Y-8625000D01*
G75*
G02*
X29745000Y-8775000I-150000J0D01*
G01*
G37*
G36*
G01*
X31015000Y-8775000D02*
X30715000Y-8775000D01*
G75*
G02*
X30565000Y-8625000I0J150000D01*
G01*
X30565000Y-6875000D01*
G75*
G02*
X30715000Y-6725000I150000J0D01*
G01*
X31015000Y-6725000D01*
G75*
G02*
X31165000Y-6875000I0J-150000D01*
G01*
X31165000Y-8625000D01*
G75*
G02*
X31015000Y-8775000I-150000J0D01*
G01*
G37*
G36*
G01*
X32285000Y-8775000D02*
X31985000Y-8775000D01*
G75*
G02*
X31835000Y-8625000I0J150000D01*
G01*
X31835000Y-6875000D01*
G75*
G02*
X31985000Y-6725000I150000J0D01*
G01*
X32285000Y-6725000D01*
G75*
G02*
X32435000Y-6875000I0J-150000D01*
G01*
X32435000Y-8625000D01*
G75*
G02*
X32285000Y-8775000I-150000J0D01*
G01*
G37*
G36*
G01*
X33555000Y-8775000D02*
X33255000Y-8775000D01*
G75*
G02*
X33105000Y-8625000I0J150000D01*
G01*
X33105000Y-6875000D01*
G75*
G02*
X33255000Y-6725000I150000J0D01*
G01*
X33555000Y-6725000D01*
G75*
G02*
X33705000Y-6875000I0J-150000D01*
G01*
X33705000Y-8625000D01*
G75*
G02*
X33555000Y-8775000I-150000J0D01*
G01*
G37*
G36*
G01*
X34825000Y-8775000D02*
X34525000Y-8775000D01*
G75*
G02*
X34375000Y-8625000I0J150000D01*
G01*
X34375000Y-6875000D01*
G75*
G02*
X34525000Y-6725000I150000J0D01*
G01*
X34825000Y-6725000D01*
G75*
G02*
X34975000Y-6875000I0J-150000D01*
G01*
X34975000Y-8625000D01*
G75*
G02*
X34825000Y-8775000I-150000J0D01*
G01*
G37*
G36*
G01*
X36095000Y-8775000D02*
X35795000Y-8775000D01*
G75*
G02*
X35645000Y-8625000I0J150000D01*
G01*
X35645000Y-6875000D01*
G75*
G02*
X35795000Y-6725000I150000J0D01*
G01*
X36095000Y-6725000D01*
G75*
G02*
X36245000Y-6875000I0J-150000D01*
G01*
X36245000Y-8625000D01*
G75*
G02*
X36095000Y-8775000I-150000J0D01*
G01*
G37*
G36*
G01*
X37365000Y-8775000D02*
X37065000Y-8775000D01*
G75*
G02*
X36915000Y-8625000I0J150000D01*
G01*
X36915000Y-6875000D01*
G75*
G02*
X37065000Y-6725000I150000J0D01*
G01*
X37365000Y-6725000D01*
G75*
G02*
X37515000Y-6875000I0J-150000D01*
G01*
X37515000Y-8625000D01*
G75*
G02*
X37365000Y-8775000I-150000J0D01*
G01*
G37*
G36*
G01*
X38635000Y-8775000D02*
X38335000Y-8775000D01*
G75*
G02*
X38185000Y-8625000I0J150000D01*
G01*
X38185000Y-6875000D01*
G75*
G02*
X38335000Y-6725000I150000J0D01*
G01*
X38635000Y-6725000D01*
G75*
G02*
X38785000Y-6875000I0J-150000D01*
G01*
X38785000Y-8625000D01*
G75*
G02*
X38635000Y-8775000I-150000J0D01*
G01*
G37*
G36*
G01*
X39905000Y-8775000D02*
X39605000Y-8775000D01*
G75*
G02*
X39455000Y-8625000I0J150000D01*
G01*
X39455000Y-6875000D01*
G75*
G02*
X39605000Y-6725000I150000J0D01*
G01*
X39905000Y-6725000D01*
G75*
G02*
X40055000Y-6875000I0J-150000D01*
G01*
X40055000Y-8625000D01*
G75*
G02*
X39905000Y-8775000I-150000J0D01*
G01*
G37*
G36*
G01*
X39905000Y-17275000D02*
X39605000Y-17275000D01*
G75*
G02*
X39455000Y-17125000I0J150000D01*
G01*
X39455000Y-15375000D01*
G75*
G02*
X39605000Y-15225000I150000J0D01*
G01*
X39905000Y-15225000D01*
G75*
G02*
X40055000Y-15375000I0J-150000D01*
G01*
X40055000Y-17125000D01*
G75*
G02*
X39905000Y-17275000I-150000J0D01*
G01*
G37*
G36*
G01*
X38635000Y-17275000D02*
X38335000Y-17275000D01*
G75*
G02*
X38185000Y-17125000I0J150000D01*
G01*
X38185000Y-15375000D01*
G75*
G02*
X38335000Y-15225000I150000J0D01*
G01*
X38635000Y-15225000D01*
G75*
G02*
X38785000Y-15375000I0J-150000D01*
G01*
X38785000Y-17125000D01*
G75*
G02*
X38635000Y-17275000I-150000J0D01*
G01*
G37*
G36*
G01*
X37365000Y-17275000D02*
X37065000Y-17275000D01*
G75*
G02*
X36915000Y-17125000I0J150000D01*
G01*
X36915000Y-15375000D01*
G75*
G02*
X37065000Y-15225000I150000J0D01*
G01*
X37365000Y-15225000D01*
G75*
G02*
X37515000Y-15375000I0J-150000D01*
G01*
X37515000Y-17125000D01*
G75*
G02*
X37365000Y-17275000I-150000J0D01*
G01*
G37*
G36*
G01*
X36095000Y-17275000D02*
X35795000Y-17275000D01*
G75*
G02*
X35645000Y-17125000I0J150000D01*
G01*
X35645000Y-15375000D01*
G75*
G02*
X35795000Y-15225000I150000J0D01*
G01*
X36095000Y-15225000D01*
G75*
G02*
X36245000Y-15375000I0J-150000D01*
G01*
X36245000Y-17125000D01*
G75*
G02*
X36095000Y-17275000I-150000J0D01*
G01*
G37*
G36*
G01*
X34825000Y-17275000D02*
X34525000Y-17275000D01*
G75*
G02*
X34375000Y-17125000I0J150000D01*
G01*
X34375000Y-15375000D01*
G75*
G02*
X34525000Y-15225000I150000J0D01*
G01*
X34825000Y-15225000D01*
G75*
G02*
X34975000Y-15375000I0J-150000D01*
G01*
X34975000Y-17125000D01*
G75*
G02*
X34825000Y-17275000I-150000J0D01*
G01*
G37*
G36*
G01*
X33555000Y-17275000D02*
X33255000Y-17275000D01*
G75*
G02*
X33105000Y-17125000I0J150000D01*
G01*
X33105000Y-15375000D01*
G75*
G02*
X33255000Y-15225000I150000J0D01*
G01*
X33555000Y-15225000D01*
G75*
G02*
X33705000Y-15375000I0J-150000D01*
G01*
X33705000Y-17125000D01*
G75*
G02*
X33555000Y-17275000I-150000J0D01*
G01*
G37*
G36*
G01*
X32285000Y-17275000D02*
X31985000Y-17275000D01*
G75*
G02*
X31835000Y-17125000I0J150000D01*
G01*
X31835000Y-15375000D01*
G75*
G02*
X31985000Y-15225000I150000J0D01*
G01*
X32285000Y-15225000D01*
G75*
G02*
X32435000Y-15375000I0J-150000D01*
G01*
X32435000Y-17125000D01*
G75*
G02*
X32285000Y-17275000I-150000J0D01*
G01*
G37*
G36*
G01*
X31015000Y-17275000D02*
X30715000Y-17275000D01*
G75*
G02*
X30565000Y-17125000I0J150000D01*
G01*
X30565000Y-15375000D01*
G75*
G02*
X30715000Y-15225000I150000J0D01*
G01*
X31015000Y-15225000D01*
G75*
G02*
X31165000Y-15375000I0J-150000D01*
G01*
X31165000Y-17125000D01*
G75*
G02*
X31015000Y-17275000I-150000J0D01*
G01*
G37*
G36*
G01*
X29745000Y-17275000D02*
X29445000Y-17275000D01*
G75*
G02*
X29295000Y-17125000I0J150000D01*
G01*
X29295000Y-15375000D01*
G75*
G02*
X29445000Y-15225000I150000J0D01*
G01*
X29745000Y-15225000D01*
G75*
G02*
X29895000Y-15375000I0J-150000D01*
G01*
X29895000Y-17125000D01*
G75*
G02*
X29745000Y-17275000I-150000J0D01*
G01*
G37*
G36*
G01*
X28475000Y-17275000D02*
X28175000Y-17275000D01*
G75*
G02*
X28025000Y-17125000I0J150000D01*
G01*
X28025000Y-15375000D01*
G75*
G02*
X28175000Y-15225000I150000J0D01*
G01*
X28475000Y-15225000D01*
G75*
G02*
X28625000Y-15375000I0J-150000D01*
G01*
X28625000Y-17125000D01*
G75*
G02*
X28475000Y-17275000I-150000J0D01*
G01*
G37*
G36*
G01*
X27205000Y-17275000D02*
X26905000Y-17275000D01*
G75*
G02*
X26755000Y-17125000I0J150000D01*
G01*
X26755000Y-15375000D01*
G75*
G02*
X26905000Y-15225000I150000J0D01*
G01*
X27205000Y-15225000D01*
G75*
G02*
X27355000Y-15375000I0J-150000D01*
G01*
X27355000Y-17125000D01*
G75*
G02*
X27205000Y-17275000I-150000J0D01*
G01*
G37*
G36*
G01*
X25935000Y-17275000D02*
X25635000Y-17275000D01*
G75*
G02*
X25485000Y-17125000I0J150000D01*
G01*
X25485000Y-15375000D01*
G75*
G02*
X25635000Y-15225000I150000J0D01*
G01*
X25935000Y-15225000D01*
G75*
G02*
X26085000Y-15375000I0J-150000D01*
G01*
X26085000Y-17125000D01*
G75*
G02*
X25935000Y-17275000I-150000J0D01*
G01*
G37*
G36*
G01*
X24665000Y-17275000D02*
X24365000Y-17275000D01*
G75*
G02*
X24215000Y-17125000I0J150000D01*
G01*
X24215000Y-15375000D01*
G75*
G02*
X24365000Y-15225000I150000J0D01*
G01*
X24665000Y-15225000D01*
G75*
G02*
X24815000Y-15375000I0J-150000D01*
G01*
X24815000Y-17125000D01*
G75*
G02*
X24665000Y-17275000I-150000J0D01*
G01*
G37*
G36*
G01*
X23395000Y-17275000D02*
X23095000Y-17275000D01*
G75*
G02*
X22945000Y-17125000I0J150000D01*
G01*
X22945000Y-15375000D01*
G75*
G02*
X23095000Y-15225000I150000J0D01*
G01*
X23395000Y-15225000D01*
G75*
G02*
X23545000Y-15375000I0J-150000D01*
G01*
X23545000Y-17125000D01*
G75*
G02*
X23395000Y-17275000I-150000J0D01*
G01*
G37*
D10*
X7530000Y-29890000D03*
X10070000Y-29890000D03*
X12610000Y-29890000D03*
X15150000Y-29890000D03*
X17690000Y-29890000D03*
X20230000Y-29890000D03*
X22770000Y-29890000D03*
X25310000Y-29890000D03*
X27850000Y-29890000D03*
X30390000Y-29890000D03*
X32930000Y-29890000D03*
X35470000Y-29890000D03*
X38010000Y-29890000D03*
X40550000Y-29890000D03*
X43090000Y-29890000D03*
G36*
G01*
X20025000Y-7550000D02*
X20975000Y-7550000D01*
G75*
G02*
X21225000Y-7800000I0J-250000D01*
G01*
X21225000Y-8300000D01*
G75*
G02*
X20975000Y-8550000I-250000J0D01*
G01*
X20025000Y-8550000D01*
G75*
G02*
X19775000Y-8300000I0J250000D01*
G01*
X19775000Y-7800000D01*
G75*
G02*
X20025000Y-7550000I250000J0D01*
G01*
G37*
G36*
G01*
X20025000Y-9450000D02*
X20975000Y-9450000D01*
G75*
G02*
X21225000Y-9700000I0J-250000D01*
G01*
X21225000Y-10200000D01*
G75*
G02*
X20975000Y-10450000I-250000J0D01*
G01*
X20025000Y-10450000D01*
G75*
G02*
X19775000Y-10200000I0J250000D01*
G01*
X19775000Y-9700000D01*
G75*
G02*
X20025000Y-9450000I250000J0D01*
G01*
G37*
G36*
G01*
X11700000Y-8200000D02*
X11700000Y-7900000D01*
G75*
G02*
X11850000Y-7750000I150000J0D01*
G01*
X12875000Y-7750000D01*
G75*
G02*
X13025000Y-7900000I0J-150000D01*
G01*
X13025000Y-8200000D01*
G75*
G02*
X12875000Y-8350000I-150000J0D01*
G01*
X11850000Y-8350000D01*
G75*
G02*
X11700000Y-8200000I0J150000D01*
G01*
G37*
G36*
G01*
X11700000Y-9150000D02*
X11700000Y-8850000D01*
G75*
G02*
X11850000Y-8700000I150000J0D01*
G01*
X12875000Y-8700000D01*
G75*
G02*
X13025000Y-8850000I0J-150000D01*
G01*
X13025000Y-9150000D01*
G75*
G02*
X12875000Y-9300000I-150000J0D01*
G01*
X11850000Y-9300000D01*
G75*
G02*
X11700000Y-9150000I0J150000D01*
G01*
G37*
G36*
G01*
X11700000Y-10100000D02*
X11700000Y-9800000D01*
G75*
G02*
X11850000Y-9650000I150000J0D01*
G01*
X12875000Y-9650000D01*
G75*
G02*
X13025000Y-9800000I0J-150000D01*
G01*
X13025000Y-10100000D01*
G75*
G02*
X12875000Y-10250000I-150000J0D01*
G01*
X11850000Y-10250000D01*
G75*
G02*
X11700000Y-10100000I0J150000D01*
G01*
G37*
G36*
G01*
X13975000Y-10100000D02*
X13975000Y-9800000D01*
G75*
G02*
X14125000Y-9650000I150000J0D01*
G01*
X15150000Y-9650000D01*
G75*
G02*
X15300000Y-9800000I0J-150000D01*
G01*
X15300000Y-10100000D01*
G75*
G02*
X15150000Y-10250000I-150000J0D01*
G01*
X14125000Y-10250000D01*
G75*
G02*
X13975000Y-10100000I0J150000D01*
G01*
G37*
G36*
G01*
X13975000Y-8200000D02*
X13975000Y-7900000D01*
G75*
G02*
X14125000Y-7750000I150000J0D01*
G01*
X15150000Y-7750000D01*
G75*
G02*
X15300000Y-7900000I0J-150000D01*
G01*
X15300000Y-8200000D01*
G75*
G02*
X15150000Y-8350000I-150000J0D01*
G01*
X14125000Y-8350000D01*
G75*
G02*
X13975000Y-8200000I0J150000D01*
G01*
G37*
G36*
G01*
X13975000Y-15200000D02*
X13975000Y-14900000D01*
G75*
G02*
X14125000Y-14750000I150000J0D01*
G01*
X15150000Y-14750000D01*
G75*
G02*
X15300000Y-14900000I0J-150000D01*
G01*
X15300000Y-15200000D01*
G75*
G02*
X15150000Y-15350000I-150000J0D01*
G01*
X14125000Y-15350000D01*
G75*
G02*
X13975000Y-15200000I0J150000D01*
G01*
G37*
G36*
G01*
X13975000Y-17100000D02*
X13975000Y-16800000D01*
G75*
G02*
X14125000Y-16650000I150000J0D01*
G01*
X15150000Y-16650000D01*
G75*
G02*
X15300000Y-16800000I0J-150000D01*
G01*
X15300000Y-17100000D01*
G75*
G02*
X15150000Y-17250000I-150000J0D01*
G01*
X14125000Y-17250000D01*
G75*
G02*
X13975000Y-17100000I0J150000D01*
G01*
G37*
G36*
G01*
X11700000Y-17100000D02*
X11700000Y-16800000D01*
G75*
G02*
X11850000Y-16650000I150000J0D01*
G01*
X12875000Y-16650000D01*
G75*
G02*
X13025000Y-16800000I0J-150000D01*
G01*
X13025000Y-17100000D01*
G75*
G02*
X12875000Y-17250000I-150000J0D01*
G01*
X11850000Y-17250000D01*
G75*
G02*
X11700000Y-17100000I0J150000D01*
G01*
G37*
G36*
G01*
X11700000Y-16150000D02*
X11700000Y-15850000D01*
G75*
G02*
X11850000Y-15700000I150000J0D01*
G01*
X12875000Y-15700000D01*
G75*
G02*
X13025000Y-15850000I0J-150000D01*
G01*
X13025000Y-16150000D01*
G75*
G02*
X12875000Y-16300000I-150000J0D01*
G01*
X11850000Y-16300000D01*
G75*
G02*
X11700000Y-16150000I0J150000D01*
G01*
G37*
G36*
G01*
X11700000Y-15200000D02*
X11700000Y-14900000D01*
G75*
G02*
X11850000Y-14750000I150000J0D01*
G01*
X12875000Y-14750000D01*
G75*
G02*
X13025000Y-14900000I0J-150000D01*
G01*
X13025000Y-15200000D01*
G75*
G02*
X12875000Y-15350000I-150000J0D01*
G01*
X11850000Y-15350000D01*
G75*
G02*
X11700000Y-15200000I0J150000D01*
G01*
G37*
M02*
