G04 #@! TF.GenerationSoftware,KiCad,Pcbnew,(5.1.8)-1*
G04 #@! TF.CreationDate,2020-11-23T14:08:16+01:00*
G04 #@! TF.ProjectId,MM1_SRAM_64k_A,4d4d315f-5352-4414-9d5f-36346b5f412e,R1*
G04 #@! TF.SameCoordinates,PX6b49d20PY52f83c0*
G04 #@! TF.FileFunction,Legend,Bot*
G04 #@! TF.FilePolarity,Positive*
%FSLAX46Y46*%
G04 Gerber Fmt 4.6, Leading zero omitted, Abs format (unit mm)*
G04 Created by KiCad (PCBNEW (5.1.8)-1) date 2020-11-23 14:08:16*
%MOMM*%
%LPD*%
G01*
G04 APERTURE LIST*
%ADD10C,0.150000*%
%ADD11C,0.300000*%
%ADD12C,0.500000*%
%ADD13C,0.120000*%
G04 APERTURE END LIST*
D10*
X50333333Y-1428571D02*
X50190476Y-1476190D01*
X50142857Y-1523809D01*
X50095238Y-1619047D01*
X50095238Y-1761904D01*
X50142857Y-1857142D01*
X50190476Y-1904761D01*
X50285714Y-1952380D01*
X50666666Y-1952380D01*
X50666666Y-952380D01*
X50333333Y-952380D01*
X50238095Y-1000000D01*
X50190476Y-1047619D01*
X50142857Y-1142857D01*
X50142857Y-1238095D01*
X50190476Y-1333333D01*
X50238095Y-1380952D01*
X50333333Y-1428571D01*
X50666666Y-1428571D01*
X49476190Y-952380D02*
X49285714Y-952380D01*
X49190476Y-1000000D01*
X49095238Y-1095238D01*
X49047619Y-1285714D01*
X49047619Y-1619047D01*
X49095238Y-1809523D01*
X49190476Y-1904761D01*
X49285714Y-1952380D01*
X49476190Y-1952380D01*
X49571428Y-1904761D01*
X49666666Y-1809523D01*
X49714285Y-1619047D01*
X49714285Y-1285714D01*
X49666666Y-1095238D01*
X49571428Y-1000000D01*
X49476190Y-952380D01*
X48761904Y-952380D02*
X48190476Y-952380D01*
X48476190Y-1952380D02*
X48476190Y-952380D01*
D11*
X20428571Y-3178571D02*
X20428571Y-1678571D01*
X19928571Y-2750000D01*
X19428571Y-1678571D01*
X19428571Y-3178571D01*
X18714285Y-3178571D02*
X18714285Y-1678571D01*
X18214285Y-2750000D01*
X17714285Y-1678571D01*
X17714285Y-3178571D01*
X16214285Y-3178571D02*
X17071428Y-3178571D01*
X16642857Y-3178571D02*
X16642857Y-1678571D01*
X16785714Y-1892857D01*
X16928571Y-2035714D01*
X17071428Y-2107142D01*
X15928571Y-3321428D02*
X14785714Y-3321428D01*
X14500000Y-3107142D02*
X14285714Y-3178571D01*
X13928571Y-3178571D01*
X13785714Y-3107142D01*
X13714285Y-3035714D01*
X13642857Y-2892857D01*
X13642857Y-2750000D01*
X13714285Y-2607142D01*
X13785714Y-2535714D01*
X13928571Y-2464285D01*
X14214285Y-2392857D01*
X14357142Y-2321428D01*
X14428571Y-2250000D01*
X14500000Y-2107142D01*
X14500000Y-1964285D01*
X14428571Y-1821428D01*
X14357142Y-1750000D01*
X14214285Y-1678571D01*
X13857142Y-1678571D01*
X13642857Y-1750000D01*
X12142857Y-3178571D02*
X12642857Y-2464285D01*
X13000000Y-3178571D02*
X13000000Y-1678571D01*
X12428571Y-1678571D01*
X12285714Y-1750000D01*
X12214285Y-1821428D01*
X12142857Y-1964285D01*
X12142857Y-2178571D01*
X12214285Y-2321428D01*
X12285714Y-2392857D01*
X12428571Y-2464285D01*
X13000000Y-2464285D01*
X11571428Y-2750000D02*
X10857142Y-2750000D01*
X11714285Y-3178571D02*
X11214285Y-1678571D01*
X10714285Y-3178571D01*
X10214285Y-3178571D02*
X10214285Y-1678571D01*
X9714285Y-2750000D01*
X9214285Y-1678571D01*
X9214285Y-3178571D01*
X8857142Y-3321428D02*
X7714285Y-3321428D01*
X6714285Y-1678571D02*
X7000000Y-1678571D01*
X7142857Y-1750000D01*
X7214285Y-1821428D01*
X7357142Y-2035714D01*
X7428571Y-2321428D01*
X7428571Y-2892857D01*
X7357142Y-3035714D01*
X7285714Y-3107142D01*
X7142857Y-3178571D01*
X6857142Y-3178571D01*
X6714285Y-3107142D01*
X6642857Y-3035714D01*
X6571428Y-2892857D01*
X6571428Y-2535714D01*
X6642857Y-2392857D01*
X6714285Y-2321428D01*
X6857142Y-2250000D01*
X7142857Y-2250000D01*
X7285714Y-2321428D01*
X7357142Y-2392857D01*
X7428571Y-2535714D01*
X5285714Y-2178571D02*
X5285714Y-3178571D01*
X5642857Y-1607142D02*
X6000000Y-2678571D01*
X5071428Y-2678571D01*
X4500000Y-3178571D02*
X4500000Y-1678571D01*
X4357142Y-2607142D02*
X3928571Y-3178571D01*
X3928571Y-2178571D02*
X4500000Y-2750000D01*
X3642857Y-3321428D02*
X2500000Y-3321428D01*
X2214285Y-2750000D02*
X1500000Y-2750000D01*
X2357142Y-3178571D02*
X1857142Y-1678571D01*
X1357142Y-3178571D01*
D12*
X47642857Y-22857142D02*
X49357142Y-22857142D01*
X48500000Y-22857142D02*
X48500000Y-19857142D01*
X48785714Y-20285714D01*
X49071428Y-20571428D01*
X49357142Y-20714285D01*
D13*
X40560000Y-12000000D02*
X40560000Y-15860000D01*
X40560000Y-15860000D02*
X40315000Y-15860000D01*
X40560000Y-12000000D02*
X40560000Y-8140000D01*
X40560000Y-8140000D02*
X40315000Y-8140000D01*
X22440000Y-12000000D02*
X22440000Y-15860000D01*
X22440000Y-15860000D02*
X22685000Y-15860000D01*
X22440000Y-12000000D02*
X22440000Y-8140000D01*
X22440000Y-8140000D02*
X22685000Y-8140000D01*
X22685000Y-8140000D02*
X22685000Y-6325000D01*
X8235000Y-22738748D02*
X8235000Y-23261252D01*
X6765000Y-22738748D02*
X6765000Y-23261252D01*
X21235000Y-15261252D02*
X21235000Y-14738748D01*
X19765000Y-15261252D02*
X19765000Y-14738748D01*
X13500000Y-14440000D02*
X15300000Y-14440000D01*
X13500000Y-14440000D02*
X12700000Y-14440000D01*
X13500000Y-17560000D02*
X14300000Y-17560000D01*
X13500000Y-17560000D02*
X12700000Y-17560000D01*
D10*
X21052380Y-11238095D02*
X21861904Y-11238095D01*
X21957142Y-11285714D01*
X22004761Y-11333333D01*
X22052380Y-11428571D01*
X22052380Y-11619047D01*
X22004761Y-11714285D01*
X21957142Y-11761904D01*
X21861904Y-11809523D01*
X21052380Y-11809523D01*
X21147619Y-12238095D02*
X21100000Y-12285714D01*
X21052380Y-12380952D01*
X21052380Y-12619047D01*
X21100000Y-12714285D01*
X21147619Y-12761904D01*
X21242857Y-12809523D01*
X21338095Y-12809523D01*
X21480952Y-12761904D01*
X22052380Y-12190476D01*
X22052380Y-12809523D01*
X6177142Y-22833333D02*
X6224761Y-22785714D01*
X6272380Y-22642857D01*
X6272380Y-22547619D01*
X6224761Y-22404761D01*
X6129523Y-22309523D01*
X6034285Y-22261904D01*
X5843809Y-22214285D01*
X5700952Y-22214285D01*
X5510476Y-22261904D01*
X5415238Y-22309523D01*
X5320000Y-22404761D01*
X5272380Y-22547619D01*
X5272380Y-22642857D01*
X5320000Y-22785714D01*
X5367619Y-22833333D01*
X6272380Y-23785714D02*
X6272380Y-23214285D01*
X6272380Y-23500000D02*
X5272380Y-23500000D01*
X5415238Y-23404761D01*
X5510476Y-23309523D01*
X5558095Y-23214285D01*
X18857142Y-14833333D02*
X18904761Y-14785714D01*
X18952380Y-14642857D01*
X18952380Y-14547619D01*
X18904761Y-14404761D01*
X18809523Y-14309523D01*
X18714285Y-14261904D01*
X18523809Y-14214285D01*
X18380952Y-14214285D01*
X18190476Y-14261904D01*
X18095238Y-14309523D01*
X18000000Y-14404761D01*
X17952380Y-14547619D01*
X17952380Y-14642857D01*
X18000000Y-14785714D01*
X18047619Y-14833333D01*
X17952380Y-15166666D02*
X17952380Y-15785714D01*
X18333333Y-15452380D01*
X18333333Y-15595238D01*
X18380952Y-15690476D01*
X18428571Y-15738095D01*
X18523809Y-15785714D01*
X18761904Y-15785714D01*
X18857142Y-15738095D01*
X18904761Y-15690476D01*
X18952380Y-15595238D01*
X18952380Y-15309523D01*
X18904761Y-15214285D01*
X18857142Y-15166666D01*
X14261904Y-13052380D02*
X14261904Y-13861904D01*
X14214285Y-13957142D01*
X14166666Y-14004761D01*
X14071428Y-14052380D01*
X13880952Y-14052380D01*
X13785714Y-14004761D01*
X13738095Y-13957142D01*
X13690476Y-13861904D01*
X13690476Y-13052380D01*
X12785714Y-13385714D02*
X12785714Y-14052380D01*
X13023809Y-13004761D02*
X13261904Y-13719047D01*
X12642857Y-13719047D01*
M02*
