M48
; DRILL file {KiCad (5.1.8)-1} date 11/23/20 14:08:50
; FORMAT={-:-/ absolute / metric / decimal}
; #@! TF.CreationDate,2020-11-23T14:08:50+01:00
; #@! TF.GenerationSoftware,Kicad,Pcbnew,(5.1.8)-1
; #@! TF.FileFunction,Plated,1,2,PTH
FMAT,2
METRIC
T1C0.200
%
G90
G05
T1
X12.55Y-13.735
X13.468Y-9.92
X14.023Y-14.322
X14.936Y-18.451
X15.577Y-18.471
X17.311Y-18.265
X18.218Y-20.633
X18.46Y-10.32
X18.778Y-14.031
X20.475Y-22.88
X21.524Y-23.947
X21.792Y-8.05
X23.866Y-14.994
X24.412Y-9.439
X25.063Y-14.978
X25.595Y-14.551
X26.306Y-9.342
X26.919Y-9.554
X27.57Y-14.949
X28.157Y-14.478
X28.788Y-9.348
X29.162Y-22.264
X29.224Y-23.353
X29.408Y-14.538
X30.105Y-9.075
X30.194Y-22.264
X30.691Y-9.919
X30.753Y-25.497
X31.112Y-24.712
X31.22Y-19.662
X31.368Y-14.797
X31.767Y-9.52
X31.825Y-18.349
X32.64Y-14.892
X33.23Y-11.42
X33.929Y-14.926
X34.405Y-9.827
X35.255Y-18.085
X35.54Y-14.5
X36.054Y-9.802
X36.825Y-9.635
X37.304Y-14.44
X38.138Y-14.498
X38.736Y-9.568
X39.609Y-13.47
X41.486Y-15.931
T0
M30
