G04 #@! TF.GenerationSoftware,KiCad,Pcbnew,(5.1.8)-1*
G04 #@! TF.CreationDate,2020-11-23T14:08:16+01:00*
G04 #@! TF.ProjectId,MM1_SRAM_64k_A,4d4d315f-5352-4414-9d5f-36346b5f412e,R1*
G04 #@! TF.SameCoordinates,PX6b49d20PY52f83c0*
G04 #@! TF.FileFunction,Copper,L1,Top*
G04 #@! TF.FilePolarity,Positive*
%FSLAX46Y46*%
G04 Gerber Fmt 4.6, Leading zero omitted, Abs format (unit mm)*
G04 Created by KiCad (PCBNEW (5.1.8)-1) date 2020-11-23 14:08:16*
%MOMM*%
%LPD*%
G01*
G04 APERTURE LIST*
G04 #@! TA.AperFunction,SMDPad,CuDef*
%ADD10R,1.700000X7.500000*%
G04 #@! TD*
G04 #@! TA.AperFunction,ViaPad*
%ADD11C,0.450000*%
G04 #@! TD*
G04 #@! TA.AperFunction,Conductor*
%ADD12C,0.250000*%
G04 #@! TD*
G04 #@! TA.AperFunction,Conductor*
%ADD13C,0.200000*%
G04 #@! TD*
G04 #@! TA.AperFunction,Conductor*
%ADD14C,0.254000*%
G04 #@! TD*
G04 #@! TA.AperFunction,Conductor*
%ADD15C,0.100000*%
G04 #@! TD*
G04 APERTURE END LIST*
G04 #@! TA.AperFunction,SMDPad,CuDef*
G36*
G01*
X23395000Y-8775000D02*
X23095000Y-8775000D01*
G75*
G02*
X22945000Y-8625000I0J150000D01*
G01*
X22945000Y-6875000D01*
G75*
G02*
X23095000Y-6725000I150000J0D01*
G01*
X23395000Y-6725000D01*
G75*
G02*
X23545000Y-6875000I0J-150000D01*
G01*
X23545000Y-8625000D01*
G75*
G02*
X23395000Y-8775000I-150000J0D01*
G01*
G37*
G04 #@! TD.AperFunction*
G04 #@! TA.AperFunction,SMDPad,CuDef*
G36*
G01*
X24665000Y-8775000D02*
X24365000Y-8775000D01*
G75*
G02*
X24215000Y-8625000I0J150000D01*
G01*
X24215000Y-6875000D01*
G75*
G02*
X24365000Y-6725000I150000J0D01*
G01*
X24665000Y-6725000D01*
G75*
G02*
X24815000Y-6875000I0J-150000D01*
G01*
X24815000Y-8625000D01*
G75*
G02*
X24665000Y-8775000I-150000J0D01*
G01*
G37*
G04 #@! TD.AperFunction*
G04 #@! TA.AperFunction,SMDPad,CuDef*
G36*
G01*
X25935000Y-8775000D02*
X25635000Y-8775000D01*
G75*
G02*
X25485000Y-8625000I0J150000D01*
G01*
X25485000Y-6875000D01*
G75*
G02*
X25635000Y-6725000I150000J0D01*
G01*
X25935000Y-6725000D01*
G75*
G02*
X26085000Y-6875000I0J-150000D01*
G01*
X26085000Y-8625000D01*
G75*
G02*
X25935000Y-8775000I-150000J0D01*
G01*
G37*
G04 #@! TD.AperFunction*
G04 #@! TA.AperFunction,SMDPad,CuDef*
G36*
G01*
X27205000Y-8775000D02*
X26905000Y-8775000D01*
G75*
G02*
X26755000Y-8625000I0J150000D01*
G01*
X26755000Y-6875000D01*
G75*
G02*
X26905000Y-6725000I150000J0D01*
G01*
X27205000Y-6725000D01*
G75*
G02*
X27355000Y-6875000I0J-150000D01*
G01*
X27355000Y-8625000D01*
G75*
G02*
X27205000Y-8775000I-150000J0D01*
G01*
G37*
G04 #@! TD.AperFunction*
G04 #@! TA.AperFunction,SMDPad,CuDef*
G36*
G01*
X28475000Y-8775000D02*
X28175000Y-8775000D01*
G75*
G02*
X28025000Y-8625000I0J150000D01*
G01*
X28025000Y-6875000D01*
G75*
G02*
X28175000Y-6725000I150000J0D01*
G01*
X28475000Y-6725000D01*
G75*
G02*
X28625000Y-6875000I0J-150000D01*
G01*
X28625000Y-8625000D01*
G75*
G02*
X28475000Y-8775000I-150000J0D01*
G01*
G37*
G04 #@! TD.AperFunction*
G04 #@! TA.AperFunction,SMDPad,CuDef*
G36*
G01*
X29745000Y-8775000D02*
X29445000Y-8775000D01*
G75*
G02*
X29295000Y-8625000I0J150000D01*
G01*
X29295000Y-6875000D01*
G75*
G02*
X29445000Y-6725000I150000J0D01*
G01*
X29745000Y-6725000D01*
G75*
G02*
X29895000Y-6875000I0J-150000D01*
G01*
X29895000Y-8625000D01*
G75*
G02*
X29745000Y-8775000I-150000J0D01*
G01*
G37*
G04 #@! TD.AperFunction*
G04 #@! TA.AperFunction,SMDPad,CuDef*
G36*
G01*
X31015000Y-8775000D02*
X30715000Y-8775000D01*
G75*
G02*
X30565000Y-8625000I0J150000D01*
G01*
X30565000Y-6875000D01*
G75*
G02*
X30715000Y-6725000I150000J0D01*
G01*
X31015000Y-6725000D01*
G75*
G02*
X31165000Y-6875000I0J-150000D01*
G01*
X31165000Y-8625000D01*
G75*
G02*
X31015000Y-8775000I-150000J0D01*
G01*
G37*
G04 #@! TD.AperFunction*
G04 #@! TA.AperFunction,SMDPad,CuDef*
G36*
G01*
X32285000Y-8775000D02*
X31985000Y-8775000D01*
G75*
G02*
X31835000Y-8625000I0J150000D01*
G01*
X31835000Y-6875000D01*
G75*
G02*
X31985000Y-6725000I150000J0D01*
G01*
X32285000Y-6725000D01*
G75*
G02*
X32435000Y-6875000I0J-150000D01*
G01*
X32435000Y-8625000D01*
G75*
G02*
X32285000Y-8775000I-150000J0D01*
G01*
G37*
G04 #@! TD.AperFunction*
G04 #@! TA.AperFunction,SMDPad,CuDef*
G36*
G01*
X33555000Y-8775000D02*
X33255000Y-8775000D01*
G75*
G02*
X33105000Y-8625000I0J150000D01*
G01*
X33105000Y-6875000D01*
G75*
G02*
X33255000Y-6725000I150000J0D01*
G01*
X33555000Y-6725000D01*
G75*
G02*
X33705000Y-6875000I0J-150000D01*
G01*
X33705000Y-8625000D01*
G75*
G02*
X33555000Y-8775000I-150000J0D01*
G01*
G37*
G04 #@! TD.AperFunction*
G04 #@! TA.AperFunction,SMDPad,CuDef*
G36*
G01*
X34825000Y-8775000D02*
X34525000Y-8775000D01*
G75*
G02*
X34375000Y-8625000I0J150000D01*
G01*
X34375000Y-6875000D01*
G75*
G02*
X34525000Y-6725000I150000J0D01*
G01*
X34825000Y-6725000D01*
G75*
G02*
X34975000Y-6875000I0J-150000D01*
G01*
X34975000Y-8625000D01*
G75*
G02*
X34825000Y-8775000I-150000J0D01*
G01*
G37*
G04 #@! TD.AperFunction*
G04 #@! TA.AperFunction,SMDPad,CuDef*
G36*
G01*
X36095000Y-8775000D02*
X35795000Y-8775000D01*
G75*
G02*
X35645000Y-8625000I0J150000D01*
G01*
X35645000Y-6875000D01*
G75*
G02*
X35795000Y-6725000I150000J0D01*
G01*
X36095000Y-6725000D01*
G75*
G02*
X36245000Y-6875000I0J-150000D01*
G01*
X36245000Y-8625000D01*
G75*
G02*
X36095000Y-8775000I-150000J0D01*
G01*
G37*
G04 #@! TD.AperFunction*
G04 #@! TA.AperFunction,SMDPad,CuDef*
G36*
G01*
X37365000Y-8775000D02*
X37065000Y-8775000D01*
G75*
G02*
X36915000Y-8625000I0J150000D01*
G01*
X36915000Y-6875000D01*
G75*
G02*
X37065000Y-6725000I150000J0D01*
G01*
X37365000Y-6725000D01*
G75*
G02*
X37515000Y-6875000I0J-150000D01*
G01*
X37515000Y-8625000D01*
G75*
G02*
X37365000Y-8775000I-150000J0D01*
G01*
G37*
G04 #@! TD.AperFunction*
G04 #@! TA.AperFunction,SMDPad,CuDef*
G36*
G01*
X38635000Y-8775000D02*
X38335000Y-8775000D01*
G75*
G02*
X38185000Y-8625000I0J150000D01*
G01*
X38185000Y-6875000D01*
G75*
G02*
X38335000Y-6725000I150000J0D01*
G01*
X38635000Y-6725000D01*
G75*
G02*
X38785000Y-6875000I0J-150000D01*
G01*
X38785000Y-8625000D01*
G75*
G02*
X38635000Y-8775000I-150000J0D01*
G01*
G37*
G04 #@! TD.AperFunction*
G04 #@! TA.AperFunction,SMDPad,CuDef*
G36*
G01*
X39905000Y-8775000D02*
X39605000Y-8775000D01*
G75*
G02*
X39455000Y-8625000I0J150000D01*
G01*
X39455000Y-6875000D01*
G75*
G02*
X39605000Y-6725000I150000J0D01*
G01*
X39905000Y-6725000D01*
G75*
G02*
X40055000Y-6875000I0J-150000D01*
G01*
X40055000Y-8625000D01*
G75*
G02*
X39905000Y-8775000I-150000J0D01*
G01*
G37*
G04 #@! TD.AperFunction*
G04 #@! TA.AperFunction,SMDPad,CuDef*
G36*
G01*
X39905000Y-17275000D02*
X39605000Y-17275000D01*
G75*
G02*
X39455000Y-17125000I0J150000D01*
G01*
X39455000Y-15375000D01*
G75*
G02*
X39605000Y-15225000I150000J0D01*
G01*
X39905000Y-15225000D01*
G75*
G02*
X40055000Y-15375000I0J-150000D01*
G01*
X40055000Y-17125000D01*
G75*
G02*
X39905000Y-17275000I-150000J0D01*
G01*
G37*
G04 #@! TD.AperFunction*
G04 #@! TA.AperFunction,SMDPad,CuDef*
G36*
G01*
X38635000Y-17275000D02*
X38335000Y-17275000D01*
G75*
G02*
X38185000Y-17125000I0J150000D01*
G01*
X38185000Y-15375000D01*
G75*
G02*
X38335000Y-15225000I150000J0D01*
G01*
X38635000Y-15225000D01*
G75*
G02*
X38785000Y-15375000I0J-150000D01*
G01*
X38785000Y-17125000D01*
G75*
G02*
X38635000Y-17275000I-150000J0D01*
G01*
G37*
G04 #@! TD.AperFunction*
G04 #@! TA.AperFunction,SMDPad,CuDef*
G36*
G01*
X37365000Y-17275000D02*
X37065000Y-17275000D01*
G75*
G02*
X36915000Y-17125000I0J150000D01*
G01*
X36915000Y-15375000D01*
G75*
G02*
X37065000Y-15225000I150000J0D01*
G01*
X37365000Y-15225000D01*
G75*
G02*
X37515000Y-15375000I0J-150000D01*
G01*
X37515000Y-17125000D01*
G75*
G02*
X37365000Y-17275000I-150000J0D01*
G01*
G37*
G04 #@! TD.AperFunction*
G04 #@! TA.AperFunction,SMDPad,CuDef*
G36*
G01*
X36095000Y-17275000D02*
X35795000Y-17275000D01*
G75*
G02*
X35645000Y-17125000I0J150000D01*
G01*
X35645000Y-15375000D01*
G75*
G02*
X35795000Y-15225000I150000J0D01*
G01*
X36095000Y-15225000D01*
G75*
G02*
X36245000Y-15375000I0J-150000D01*
G01*
X36245000Y-17125000D01*
G75*
G02*
X36095000Y-17275000I-150000J0D01*
G01*
G37*
G04 #@! TD.AperFunction*
G04 #@! TA.AperFunction,SMDPad,CuDef*
G36*
G01*
X34825000Y-17275000D02*
X34525000Y-17275000D01*
G75*
G02*
X34375000Y-17125000I0J150000D01*
G01*
X34375000Y-15375000D01*
G75*
G02*
X34525000Y-15225000I150000J0D01*
G01*
X34825000Y-15225000D01*
G75*
G02*
X34975000Y-15375000I0J-150000D01*
G01*
X34975000Y-17125000D01*
G75*
G02*
X34825000Y-17275000I-150000J0D01*
G01*
G37*
G04 #@! TD.AperFunction*
G04 #@! TA.AperFunction,SMDPad,CuDef*
G36*
G01*
X33555000Y-17275000D02*
X33255000Y-17275000D01*
G75*
G02*
X33105000Y-17125000I0J150000D01*
G01*
X33105000Y-15375000D01*
G75*
G02*
X33255000Y-15225000I150000J0D01*
G01*
X33555000Y-15225000D01*
G75*
G02*
X33705000Y-15375000I0J-150000D01*
G01*
X33705000Y-17125000D01*
G75*
G02*
X33555000Y-17275000I-150000J0D01*
G01*
G37*
G04 #@! TD.AperFunction*
G04 #@! TA.AperFunction,SMDPad,CuDef*
G36*
G01*
X32285000Y-17275000D02*
X31985000Y-17275000D01*
G75*
G02*
X31835000Y-17125000I0J150000D01*
G01*
X31835000Y-15375000D01*
G75*
G02*
X31985000Y-15225000I150000J0D01*
G01*
X32285000Y-15225000D01*
G75*
G02*
X32435000Y-15375000I0J-150000D01*
G01*
X32435000Y-17125000D01*
G75*
G02*
X32285000Y-17275000I-150000J0D01*
G01*
G37*
G04 #@! TD.AperFunction*
G04 #@! TA.AperFunction,SMDPad,CuDef*
G36*
G01*
X31015000Y-17275000D02*
X30715000Y-17275000D01*
G75*
G02*
X30565000Y-17125000I0J150000D01*
G01*
X30565000Y-15375000D01*
G75*
G02*
X30715000Y-15225000I150000J0D01*
G01*
X31015000Y-15225000D01*
G75*
G02*
X31165000Y-15375000I0J-150000D01*
G01*
X31165000Y-17125000D01*
G75*
G02*
X31015000Y-17275000I-150000J0D01*
G01*
G37*
G04 #@! TD.AperFunction*
G04 #@! TA.AperFunction,SMDPad,CuDef*
G36*
G01*
X29745000Y-17275000D02*
X29445000Y-17275000D01*
G75*
G02*
X29295000Y-17125000I0J150000D01*
G01*
X29295000Y-15375000D01*
G75*
G02*
X29445000Y-15225000I150000J0D01*
G01*
X29745000Y-15225000D01*
G75*
G02*
X29895000Y-15375000I0J-150000D01*
G01*
X29895000Y-17125000D01*
G75*
G02*
X29745000Y-17275000I-150000J0D01*
G01*
G37*
G04 #@! TD.AperFunction*
G04 #@! TA.AperFunction,SMDPad,CuDef*
G36*
G01*
X28475000Y-17275000D02*
X28175000Y-17275000D01*
G75*
G02*
X28025000Y-17125000I0J150000D01*
G01*
X28025000Y-15375000D01*
G75*
G02*
X28175000Y-15225000I150000J0D01*
G01*
X28475000Y-15225000D01*
G75*
G02*
X28625000Y-15375000I0J-150000D01*
G01*
X28625000Y-17125000D01*
G75*
G02*
X28475000Y-17275000I-150000J0D01*
G01*
G37*
G04 #@! TD.AperFunction*
G04 #@! TA.AperFunction,SMDPad,CuDef*
G36*
G01*
X27205000Y-17275000D02*
X26905000Y-17275000D01*
G75*
G02*
X26755000Y-17125000I0J150000D01*
G01*
X26755000Y-15375000D01*
G75*
G02*
X26905000Y-15225000I150000J0D01*
G01*
X27205000Y-15225000D01*
G75*
G02*
X27355000Y-15375000I0J-150000D01*
G01*
X27355000Y-17125000D01*
G75*
G02*
X27205000Y-17275000I-150000J0D01*
G01*
G37*
G04 #@! TD.AperFunction*
G04 #@! TA.AperFunction,SMDPad,CuDef*
G36*
G01*
X25935000Y-17275000D02*
X25635000Y-17275000D01*
G75*
G02*
X25485000Y-17125000I0J150000D01*
G01*
X25485000Y-15375000D01*
G75*
G02*
X25635000Y-15225000I150000J0D01*
G01*
X25935000Y-15225000D01*
G75*
G02*
X26085000Y-15375000I0J-150000D01*
G01*
X26085000Y-17125000D01*
G75*
G02*
X25935000Y-17275000I-150000J0D01*
G01*
G37*
G04 #@! TD.AperFunction*
G04 #@! TA.AperFunction,SMDPad,CuDef*
G36*
G01*
X24665000Y-17275000D02*
X24365000Y-17275000D01*
G75*
G02*
X24215000Y-17125000I0J150000D01*
G01*
X24215000Y-15375000D01*
G75*
G02*
X24365000Y-15225000I150000J0D01*
G01*
X24665000Y-15225000D01*
G75*
G02*
X24815000Y-15375000I0J-150000D01*
G01*
X24815000Y-17125000D01*
G75*
G02*
X24665000Y-17275000I-150000J0D01*
G01*
G37*
G04 #@! TD.AperFunction*
G04 #@! TA.AperFunction,SMDPad,CuDef*
G36*
G01*
X23395000Y-17275000D02*
X23095000Y-17275000D01*
G75*
G02*
X22945000Y-17125000I0J150000D01*
G01*
X22945000Y-15375000D01*
G75*
G02*
X23095000Y-15225000I150000J0D01*
G01*
X23395000Y-15225000D01*
G75*
G02*
X23545000Y-15375000I0J-150000D01*
G01*
X23545000Y-17125000D01*
G75*
G02*
X23395000Y-17275000I-150000J0D01*
G01*
G37*
G04 #@! TD.AperFunction*
D10*
X7530000Y-29890000D03*
X10070000Y-29890000D03*
X12610000Y-29890000D03*
X15150000Y-29890000D03*
X17690000Y-29890000D03*
X20230000Y-29890000D03*
X22770000Y-29890000D03*
X25310000Y-29890000D03*
X27850000Y-29890000D03*
X30390000Y-29890000D03*
X32930000Y-29890000D03*
X35470000Y-29890000D03*
X38010000Y-29890000D03*
X40550000Y-29890000D03*
X43090000Y-29890000D03*
G04 #@! TA.AperFunction,SMDPad,CuDef*
G36*
G01*
X20025000Y-7550000D02*
X20975000Y-7550000D01*
G75*
G02*
X21225000Y-7800000I0J-250000D01*
G01*
X21225000Y-8300000D01*
G75*
G02*
X20975000Y-8550000I-250000J0D01*
G01*
X20025000Y-8550000D01*
G75*
G02*
X19775000Y-8300000I0J250000D01*
G01*
X19775000Y-7800000D01*
G75*
G02*
X20025000Y-7550000I250000J0D01*
G01*
G37*
G04 #@! TD.AperFunction*
G04 #@! TA.AperFunction,SMDPad,CuDef*
G36*
G01*
X20025000Y-9450000D02*
X20975000Y-9450000D01*
G75*
G02*
X21225000Y-9700000I0J-250000D01*
G01*
X21225000Y-10200000D01*
G75*
G02*
X20975000Y-10450000I-250000J0D01*
G01*
X20025000Y-10450000D01*
G75*
G02*
X19775000Y-10200000I0J250000D01*
G01*
X19775000Y-9700000D01*
G75*
G02*
X20025000Y-9450000I250000J0D01*
G01*
G37*
G04 #@! TD.AperFunction*
G04 #@! TA.AperFunction,SMDPad,CuDef*
G36*
G01*
X11700000Y-8200000D02*
X11700000Y-7900000D01*
G75*
G02*
X11850000Y-7750000I150000J0D01*
G01*
X12875000Y-7750000D01*
G75*
G02*
X13025000Y-7900000I0J-150000D01*
G01*
X13025000Y-8200000D01*
G75*
G02*
X12875000Y-8350000I-150000J0D01*
G01*
X11850000Y-8350000D01*
G75*
G02*
X11700000Y-8200000I0J150000D01*
G01*
G37*
G04 #@! TD.AperFunction*
G04 #@! TA.AperFunction,SMDPad,CuDef*
G36*
G01*
X11700000Y-9150000D02*
X11700000Y-8850000D01*
G75*
G02*
X11850000Y-8700000I150000J0D01*
G01*
X12875000Y-8700000D01*
G75*
G02*
X13025000Y-8850000I0J-150000D01*
G01*
X13025000Y-9150000D01*
G75*
G02*
X12875000Y-9300000I-150000J0D01*
G01*
X11850000Y-9300000D01*
G75*
G02*
X11700000Y-9150000I0J150000D01*
G01*
G37*
G04 #@! TD.AperFunction*
G04 #@! TA.AperFunction,SMDPad,CuDef*
G36*
G01*
X11700000Y-10100000D02*
X11700000Y-9800000D01*
G75*
G02*
X11850000Y-9650000I150000J0D01*
G01*
X12875000Y-9650000D01*
G75*
G02*
X13025000Y-9800000I0J-150000D01*
G01*
X13025000Y-10100000D01*
G75*
G02*
X12875000Y-10250000I-150000J0D01*
G01*
X11850000Y-10250000D01*
G75*
G02*
X11700000Y-10100000I0J150000D01*
G01*
G37*
G04 #@! TD.AperFunction*
G04 #@! TA.AperFunction,SMDPad,CuDef*
G36*
G01*
X13975000Y-10100000D02*
X13975000Y-9800000D01*
G75*
G02*
X14125000Y-9650000I150000J0D01*
G01*
X15150000Y-9650000D01*
G75*
G02*
X15300000Y-9800000I0J-150000D01*
G01*
X15300000Y-10100000D01*
G75*
G02*
X15150000Y-10250000I-150000J0D01*
G01*
X14125000Y-10250000D01*
G75*
G02*
X13975000Y-10100000I0J150000D01*
G01*
G37*
G04 #@! TD.AperFunction*
G04 #@! TA.AperFunction,SMDPad,CuDef*
G36*
G01*
X13975000Y-8200000D02*
X13975000Y-7900000D01*
G75*
G02*
X14125000Y-7750000I150000J0D01*
G01*
X15150000Y-7750000D01*
G75*
G02*
X15300000Y-7900000I0J-150000D01*
G01*
X15300000Y-8200000D01*
G75*
G02*
X15150000Y-8350000I-150000J0D01*
G01*
X14125000Y-8350000D01*
G75*
G02*
X13975000Y-8200000I0J150000D01*
G01*
G37*
G04 #@! TD.AperFunction*
G04 #@! TA.AperFunction,SMDPad,CuDef*
G36*
G01*
X13975000Y-15200000D02*
X13975000Y-14900000D01*
G75*
G02*
X14125000Y-14750000I150000J0D01*
G01*
X15150000Y-14750000D01*
G75*
G02*
X15300000Y-14900000I0J-150000D01*
G01*
X15300000Y-15200000D01*
G75*
G02*
X15150000Y-15350000I-150000J0D01*
G01*
X14125000Y-15350000D01*
G75*
G02*
X13975000Y-15200000I0J150000D01*
G01*
G37*
G04 #@! TD.AperFunction*
G04 #@! TA.AperFunction,SMDPad,CuDef*
G36*
G01*
X13975000Y-17100000D02*
X13975000Y-16800000D01*
G75*
G02*
X14125000Y-16650000I150000J0D01*
G01*
X15150000Y-16650000D01*
G75*
G02*
X15300000Y-16800000I0J-150000D01*
G01*
X15300000Y-17100000D01*
G75*
G02*
X15150000Y-17250000I-150000J0D01*
G01*
X14125000Y-17250000D01*
G75*
G02*
X13975000Y-17100000I0J150000D01*
G01*
G37*
G04 #@! TD.AperFunction*
G04 #@! TA.AperFunction,SMDPad,CuDef*
G36*
G01*
X11700000Y-17100000D02*
X11700000Y-16800000D01*
G75*
G02*
X11850000Y-16650000I150000J0D01*
G01*
X12875000Y-16650000D01*
G75*
G02*
X13025000Y-16800000I0J-150000D01*
G01*
X13025000Y-17100000D01*
G75*
G02*
X12875000Y-17250000I-150000J0D01*
G01*
X11850000Y-17250000D01*
G75*
G02*
X11700000Y-17100000I0J150000D01*
G01*
G37*
G04 #@! TD.AperFunction*
G04 #@! TA.AperFunction,SMDPad,CuDef*
G36*
G01*
X11700000Y-16150000D02*
X11700000Y-15850000D01*
G75*
G02*
X11850000Y-15700000I150000J0D01*
G01*
X12875000Y-15700000D01*
G75*
G02*
X13025000Y-15850000I0J-150000D01*
G01*
X13025000Y-16150000D01*
G75*
G02*
X12875000Y-16300000I-150000J0D01*
G01*
X11850000Y-16300000D01*
G75*
G02*
X11700000Y-16150000I0J150000D01*
G01*
G37*
G04 #@! TD.AperFunction*
G04 #@! TA.AperFunction,SMDPad,CuDef*
G36*
G01*
X11700000Y-15200000D02*
X11700000Y-14900000D01*
G75*
G02*
X11850000Y-14750000I150000J0D01*
G01*
X12875000Y-14750000D01*
G75*
G02*
X13025000Y-14900000I0J-150000D01*
G01*
X13025000Y-15200000D01*
G75*
G02*
X12875000Y-15350000I-150000J0D01*
G01*
X11850000Y-15350000D01*
G75*
G02*
X11700000Y-15200000I0J150000D01*
G01*
G37*
G04 #@! TD.AperFunction*
D11*
X41486200Y-15931200D03*
X18460000Y-10320000D03*
X21791600Y-8050000D03*
X12549700Y-13734600D03*
X14935900Y-18450700D03*
X30691500Y-9919500D03*
X14023100Y-14321900D03*
X15577000Y-18471400D03*
X34405500Y-9826700D03*
X17311100Y-18265200D03*
X24411885Y-9439078D03*
X18217600Y-20632700D03*
X36825500Y-9634800D03*
X36053600Y-9801800D03*
X20474600Y-22880300D03*
X39608600Y-13470500D03*
X38735964Y-9568228D03*
X21523900Y-23947400D03*
X37304241Y-14440049D03*
X38137847Y-14497960D03*
X35539600Y-14499900D03*
X13468300Y-9920100D03*
X26306000Y-9342400D03*
X23866100Y-14994100D03*
X30105300Y-9075000D03*
X25063500Y-14978400D03*
X30194500Y-22263900D03*
X29162300Y-22263900D03*
X28787700Y-9347749D03*
X30752900Y-25496800D03*
X31766580Y-9520401D03*
X31111800Y-24712100D03*
X25595145Y-14550663D03*
X29224100Y-23352900D03*
X26919392Y-9553585D03*
X31220300Y-19662100D03*
X28157441Y-14478367D03*
X27570200Y-14948600D03*
X31824700Y-18349300D03*
X31367732Y-14797087D03*
X29408263Y-14538144D03*
X33928800Y-14925800D03*
X32640010Y-14891631D03*
X35255300Y-18084700D03*
X18777600Y-14031100D03*
X33230500Y-11420400D03*
D12*
X12362500Y-16950000D02*
X11919100Y-16950000D01*
X20500000Y-9950000D02*
X20165700Y-9615700D01*
X21791600Y-8050000D02*
X22091600Y-7750000D01*
X22091600Y-7750000D02*
X23245000Y-7750000D01*
X21791600Y-8050000D02*
X20500000Y-8050000D01*
X15860000Y-8050000D02*
X14637500Y-8050000D01*
X16070000Y-12090100D02*
X14425500Y-13734600D01*
X14425500Y-13734600D02*
X12549700Y-13734600D01*
X14637500Y-15050000D02*
X14637500Y-13946600D01*
X14637500Y-13946600D02*
X14425500Y-13734600D01*
X15860000Y-8050000D02*
X16070000Y-8260000D01*
X16070000Y-8260000D02*
X16070000Y-12090100D01*
X16070000Y-8050000D02*
X16070000Y-8260000D01*
X16070000Y-8050000D02*
X15860000Y-8050000D01*
X16070000Y-8260000D02*
X16070000Y-8250000D01*
X16270000Y-8050000D02*
X16070000Y-8050000D01*
X16070000Y-8250000D02*
X16270000Y-8050000D01*
X20500000Y-8050000D02*
X16270000Y-8050000D01*
D13*
X30865000Y-7750000D02*
X30865000Y-9746000D01*
X30865000Y-9746000D02*
X30691500Y-9919500D01*
X30691500Y-9919500D02*
X27300879Y-9919500D01*
X21937914Y-10058586D02*
X17256100Y-14740400D01*
X27161793Y-10058586D02*
X21937914Y-10058586D01*
X14935900Y-17922700D02*
X14935900Y-18450700D01*
X27300879Y-9919500D02*
X27161793Y-10058586D01*
X17256100Y-14740400D02*
X17256100Y-15602500D01*
X17256100Y-15602500D02*
X14935900Y-17922700D01*
X13482500Y-19107000D02*
X10070000Y-22519500D01*
X10070000Y-22519500D02*
X10070000Y-29890000D01*
X12362500Y-15050000D02*
X12744600Y-15050000D01*
X13475000Y-15050000D02*
X13482500Y-15057500D01*
X12362500Y-15050000D02*
X13475000Y-15050000D01*
X13482500Y-15057500D02*
X13482500Y-19107000D01*
X13768100Y-14321900D02*
X14023100Y-14321900D01*
X13482500Y-14607500D02*
X13768100Y-14321900D01*
X13482500Y-15057500D02*
X13482500Y-14607500D01*
X34675000Y-7750000D02*
X34675000Y-9557200D01*
X34675000Y-9557200D02*
X34405500Y-9826700D01*
X34087302Y-9826700D02*
X34405500Y-9826700D01*
X26527859Y-11005581D02*
X26600155Y-10933285D01*
X15577000Y-17946200D02*
X22517619Y-11005581D01*
X15577000Y-18471400D02*
X15577000Y-17946200D01*
X26600155Y-10933285D02*
X32980717Y-10933285D01*
X22517619Y-11005581D02*
X26527859Y-11005581D01*
X32980717Y-10933285D02*
X34087302Y-9826700D01*
X12610000Y-29890000D02*
X12610000Y-22966300D01*
X12610000Y-22966300D02*
X17311100Y-18265200D01*
X24515000Y-9335963D02*
X24411885Y-9439078D01*
X24515000Y-7750000D02*
X24515000Y-9335963D01*
X37215000Y-7750000D02*
X37215000Y-9245300D01*
X37215000Y-9245300D02*
X36825500Y-9634800D01*
X19839000Y-15297700D02*
X22991089Y-12145611D01*
X27055718Y-12145610D02*
X27128014Y-12073314D01*
X22991089Y-12145611D02*
X27055718Y-12145610D01*
X30678703Y-12374100D02*
X34404398Y-12374100D01*
X34404398Y-12374100D02*
X36825500Y-9952998D01*
X19839000Y-19011300D02*
X19839000Y-15297700D01*
X18217600Y-20632700D02*
X19839000Y-19011300D01*
X30377917Y-12073314D02*
X30678703Y-12374100D01*
X27128014Y-12073314D02*
X30377917Y-12073314D01*
X36825500Y-9952998D02*
X36825500Y-9634800D01*
X35945000Y-7750000D02*
X35945000Y-9693200D01*
X35945000Y-9693200D02*
X36053600Y-9801800D01*
X19289100Y-17047500D02*
X19289100Y-15309700D01*
X15150000Y-29890000D02*
X15150000Y-21186600D01*
X30535323Y-11693304D02*
X30815506Y-11973487D01*
X33881913Y-11973487D02*
X36053600Y-9801800D01*
X19289100Y-15309700D02*
X22833199Y-11765601D01*
X26898311Y-11765601D02*
X26970608Y-11693304D01*
X22833199Y-11765601D02*
X26898311Y-11765601D01*
X30815506Y-11973487D02*
X33881913Y-11973487D01*
X26970608Y-11693304D02*
X30535323Y-11693304D01*
X15150000Y-21186600D02*
X19289100Y-17047500D01*
X39608600Y-12961400D02*
X39755000Y-12815000D01*
X39608600Y-13470500D02*
X39608600Y-12961400D01*
X39755000Y-7750000D02*
X39755000Y-12815000D01*
X20474600Y-22880300D02*
X20599700Y-22755200D01*
X27370529Y-12905630D02*
X27442829Y-12833332D01*
X30380171Y-13150400D02*
X39288500Y-13150400D01*
X39288500Y-13150400D02*
X39608600Y-13470500D01*
X20599700Y-15646300D02*
X23340369Y-12905631D01*
X30063103Y-12833332D02*
X30380171Y-13150400D01*
X27442829Y-12833332D02*
X30063103Y-12833332D01*
X20599700Y-22755200D02*
X20599700Y-15646300D01*
X23340369Y-12905631D02*
X27370529Y-12905630D01*
X38485000Y-9317264D02*
X38735964Y-9568228D01*
X38485000Y-7750000D02*
X38485000Y-9317264D01*
X20219400Y-15488800D02*
X23182579Y-12525621D01*
X35543660Y-12760532D02*
X38735964Y-9568228D01*
X20219400Y-22421000D02*
X20219400Y-15488800D01*
X17690000Y-29890000D02*
X17690000Y-24950400D01*
X30527719Y-12760532D02*
X35543660Y-12760532D01*
X30220512Y-12453325D02*
X30527719Y-12760532D01*
X17690000Y-24950400D02*
X20219400Y-22421000D01*
X23182579Y-12525621D02*
X27213123Y-12525621D01*
X27213123Y-12525621D02*
X27285419Y-12453325D01*
X27285419Y-12453325D02*
X30220512Y-12453325D01*
X37215000Y-16250000D02*
X37215000Y-14529290D01*
X37215000Y-14529290D02*
X37304241Y-14440049D01*
X21523900Y-23947400D02*
X21523900Y-15797700D01*
X23655949Y-13665651D02*
X27685338Y-13665650D01*
X27757634Y-13593354D02*
X29748293Y-13593354D01*
X27685338Y-13665650D02*
X27757634Y-13593354D01*
X21523900Y-15797700D02*
X23655949Y-13665651D01*
X36775192Y-13911000D02*
X37304241Y-14440049D01*
X30065939Y-13911000D02*
X36775192Y-13911000D01*
X29748293Y-13593354D02*
X30065939Y-13911000D01*
X20230000Y-25859700D02*
X20980000Y-25109700D01*
X37170587Y-13530700D02*
X38137847Y-14497960D01*
X29905699Y-13213344D02*
X30223055Y-13530700D01*
X27600229Y-13213343D02*
X29905699Y-13213344D01*
X27527931Y-13285641D02*
X27600229Y-13213343D01*
X23498159Y-13285641D02*
X27527931Y-13285641D01*
X20980000Y-15803800D02*
X23498159Y-13285641D01*
X30223055Y-13530700D02*
X37170587Y-13530700D01*
X20980000Y-25109700D02*
X20980000Y-15803800D01*
X20230000Y-29890000D02*
X20230000Y-25859700D01*
X38485000Y-16250000D02*
X38485000Y-14845113D01*
X38485000Y-14845113D02*
X38137847Y-14497960D01*
X35539600Y-14499900D02*
X35945000Y-14905300D01*
X35945000Y-14905300D02*
X35945000Y-16250000D01*
X27842743Y-14045661D02*
X27915039Y-13973365D01*
X22770000Y-25859700D02*
X22614600Y-25704300D01*
X22770000Y-29890000D02*
X22770000Y-25859700D01*
X22614600Y-25704300D02*
X22614600Y-15244800D01*
X22614600Y-15244800D02*
X23813739Y-14045661D01*
X23813739Y-14045661D02*
X27842743Y-14045661D01*
X29590888Y-13973365D02*
X29908823Y-14291300D01*
X35331000Y-14291300D02*
X35539600Y-14499900D01*
X29908823Y-14291300D02*
X35331000Y-14291300D01*
X27915039Y-13973365D02*
X29590888Y-13973365D01*
X13468300Y-9298300D02*
X13468300Y-9920100D01*
X12362500Y-9000000D02*
X13170000Y-9000000D01*
X13170000Y-9000000D02*
X13468300Y-9298300D01*
X25785000Y-7750000D02*
X25785000Y-8821400D01*
X25785000Y-8821400D02*
X26306000Y-9342400D01*
X23245000Y-16250000D02*
X23245000Y-15615200D01*
X23245000Y-15615200D02*
X23866100Y-14994100D01*
X25310000Y-25859700D02*
X23245000Y-23794700D01*
X23245000Y-23794700D02*
X23245000Y-16250000D01*
X25310000Y-29890000D02*
X25310000Y-25859700D01*
X29595000Y-8564700D02*
X30105300Y-9075000D01*
X29595000Y-7750000D02*
X29595000Y-8564700D01*
X25063500Y-14978400D02*
X24515000Y-15526900D01*
X24515000Y-15526900D02*
X24515000Y-16250000D01*
X27850000Y-29890000D02*
X27850000Y-25859700D01*
X24515000Y-16250000D02*
X24515000Y-22524700D01*
X24515000Y-22524700D02*
X27850000Y-25859700D01*
X30194500Y-22263900D02*
X29162300Y-22263900D01*
X28325000Y-7750000D02*
X28325000Y-8885049D01*
X28325000Y-8885049D02*
X28787700Y-9347749D01*
X30752900Y-25496800D02*
X30390000Y-25859700D01*
X30390000Y-29890000D02*
X30390000Y-25859700D01*
X32135000Y-9151981D02*
X31766580Y-9520401D01*
X32135000Y-7750000D02*
X32135000Y-9151981D01*
X25785000Y-16250000D02*
X25785000Y-20631600D01*
X25785000Y-20631600D02*
X29865500Y-24712100D01*
X29865500Y-24712100D02*
X31111800Y-24712100D01*
X25785000Y-16250000D02*
X25785000Y-14810000D01*
X25785000Y-14810000D02*
X25595145Y-14620145D01*
X25595145Y-14620145D02*
X25595145Y-14550663D01*
X32930000Y-29890000D02*
X32930000Y-25785700D01*
X32930000Y-25785700D02*
X30497200Y-23352900D01*
X30497200Y-23352900D02*
X29224100Y-23352900D01*
X27055000Y-7750000D02*
X27055000Y-9417977D01*
X27055000Y-9417977D02*
X26919392Y-9553585D01*
X28325000Y-16250000D02*
X28325000Y-16766800D01*
X28325000Y-16766800D02*
X31220300Y-19662100D01*
X28325000Y-16250000D02*
X28325000Y-14645926D01*
X28325000Y-14645926D02*
X28157441Y-14478367D01*
X35470000Y-29890000D02*
X35470000Y-25859700D01*
X27055000Y-16250000D02*
X27055000Y-17444700D01*
X27055000Y-17444700D02*
X35470000Y-25859700D01*
X27570200Y-14948600D02*
X27055000Y-15463800D01*
X27055000Y-15463800D02*
X27055000Y-16250000D01*
X30865000Y-16250000D02*
X30865000Y-17389600D01*
X30865000Y-17389600D02*
X31824700Y-18349300D01*
X30865000Y-15299819D02*
X31367732Y-14797087D01*
X30865000Y-16250000D02*
X30865000Y-15299819D01*
X38010000Y-29890000D02*
X38010000Y-25737300D01*
X38010000Y-25737300D02*
X29595000Y-17322300D01*
X29595000Y-17322300D02*
X29595000Y-16250000D01*
X29595000Y-16250000D02*
X29595000Y-14724881D01*
X29595000Y-14724881D02*
X29408263Y-14538144D01*
X33928800Y-14925800D02*
X33405000Y-15449600D01*
X33405000Y-15449600D02*
X33405000Y-16250000D01*
X32135000Y-16250000D02*
X32135000Y-17444700D01*
X32135000Y-17444700D02*
X40550000Y-25859700D01*
X40550000Y-29890000D02*
X40550000Y-25859700D01*
X32135000Y-15396641D02*
X32640010Y-14891631D01*
X32135000Y-16250000D02*
X32135000Y-15396641D01*
X34675000Y-16250000D02*
X34675000Y-17504400D01*
X34675000Y-17504400D02*
X35255300Y-18084700D01*
X43090000Y-25919400D02*
X35255300Y-18084700D01*
X43090000Y-29890000D02*
X43090000Y-25919400D01*
X22336100Y-10472600D02*
X18777600Y-14031100D01*
X31707400Y-10472600D02*
X22336100Y-10472600D01*
X33405000Y-7750000D02*
X33405000Y-8775000D01*
X33405000Y-8775000D02*
X31707400Y-10472600D01*
X16701600Y-17359500D02*
X22675509Y-11385591D01*
X16701600Y-18156100D02*
X16701600Y-17359500D01*
X22675509Y-11385591D02*
X26740924Y-11385591D01*
X26740924Y-11385591D02*
X26813229Y-11313286D01*
X14337500Y-17250000D02*
X14337500Y-18609300D01*
X26813229Y-11313286D02*
X32805188Y-11313286D01*
X14762000Y-19033800D02*
X15823900Y-19033800D01*
X14637500Y-16950000D02*
X14337500Y-17250000D01*
X32805188Y-11313286D02*
X32912302Y-11420400D01*
X32912302Y-11420400D02*
X33230500Y-11420400D01*
X15823900Y-19033800D02*
X16701600Y-18156100D01*
X14337500Y-18609300D02*
X14762000Y-19033800D01*
X12362500Y-16000000D02*
X11480000Y-16000000D01*
X11480000Y-16000000D02*
X11220000Y-15740000D01*
X11220000Y-13367500D02*
X14637500Y-9950000D01*
X11220000Y-15740000D02*
X11220000Y-13367500D01*
D14*
X50790000Y-22705908D02*
X49205909Y-24290000D01*
X45534877Y-24290000D01*
X45500000Y-24286565D01*
X45465123Y-24290000D01*
X45360816Y-24300273D01*
X45226980Y-24340872D01*
X45103637Y-24406800D01*
X44995525Y-24495525D01*
X44906800Y-24603637D01*
X44840872Y-24726980D01*
X44800273Y-24860816D01*
X44786565Y-25000000D01*
X44790000Y-25034876D01*
X44790001Y-33290000D01*
X44578072Y-33290000D01*
X44578072Y-26140000D01*
X44565812Y-26015518D01*
X44529502Y-25895820D01*
X44470537Y-25785506D01*
X44391185Y-25688815D01*
X44294494Y-25609463D01*
X44184180Y-25550498D01*
X44064482Y-25514188D01*
X43940000Y-25501928D01*
X43698217Y-25501928D01*
X43612238Y-25397162D01*
X43584193Y-25374146D01*
X36120597Y-17910551D01*
X36248745Y-17897929D01*
X36396582Y-17853084D01*
X36532829Y-17780258D01*
X36580000Y-17741546D01*
X36627171Y-17780258D01*
X36763418Y-17853084D01*
X36911255Y-17897929D01*
X37065000Y-17913072D01*
X37365000Y-17913072D01*
X37518745Y-17897929D01*
X37666582Y-17853084D01*
X37802829Y-17780258D01*
X37850000Y-17741546D01*
X37897171Y-17780258D01*
X38033418Y-17853084D01*
X38181255Y-17897929D01*
X38335000Y-17913072D01*
X38635000Y-17913072D01*
X38788745Y-17897929D01*
X38936582Y-17853084D01*
X39070936Y-17781270D01*
X39100506Y-17805537D01*
X39210820Y-17864502D01*
X39330518Y-17900812D01*
X39455000Y-17913072D01*
X39469250Y-17910000D01*
X39628000Y-17751250D01*
X39628000Y-16377000D01*
X39882000Y-16377000D01*
X39882000Y-17751250D01*
X40040750Y-17910000D01*
X40055000Y-17913072D01*
X40179482Y-17900812D01*
X40299180Y-17864502D01*
X40409494Y-17805537D01*
X40506185Y-17726185D01*
X40585537Y-17629494D01*
X40644502Y-17519180D01*
X40680812Y-17399482D01*
X40693072Y-17275000D01*
X40690000Y-16535750D01*
X40531250Y-16377000D01*
X39882000Y-16377000D01*
X39628000Y-16377000D01*
X39608000Y-16377000D01*
X39608000Y-16123000D01*
X39628000Y-16123000D01*
X39628000Y-14748750D01*
X39882000Y-14748750D01*
X39882000Y-16123000D01*
X40531250Y-16123000D01*
X40690000Y-15964250D01*
X40693072Y-15225000D01*
X40680812Y-15100518D01*
X40644502Y-14980820D01*
X40585537Y-14870506D01*
X40506185Y-14773815D01*
X40409494Y-14694463D01*
X40299180Y-14635498D01*
X40179482Y-14599188D01*
X40055000Y-14586928D01*
X40040750Y-14590000D01*
X39882000Y-14748750D01*
X39628000Y-14748750D01*
X39469250Y-14590000D01*
X39455000Y-14586928D01*
X39330518Y-14599188D01*
X39210820Y-14635498D01*
X39192463Y-14645310D01*
X39167337Y-14562480D01*
X39099087Y-14434793D01*
X39007238Y-14322875D01*
X38979187Y-14299854D01*
X38974322Y-14294989D01*
X38964798Y-14247107D01*
X38899969Y-14090597D01*
X38805852Y-13949742D01*
X38741510Y-13885400D01*
X38851514Y-13885400D01*
X38940595Y-14018718D01*
X39060382Y-14138505D01*
X39201237Y-14232622D01*
X39357747Y-14297451D01*
X39523897Y-14330500D01*
X39693303Y-14330500D01*
X39859453Y-14297451D01*
X40015963Y-14232622D01*
X40156818Y-14138505D01*
X40276605Y-14018718D01*
X40370722Y-13877863D01*
X40435551Y-13721353D01*
X40468600Y-13555203D01*
X40468600Y-13385797D01*
X40435551Y-13219647D01*
X40407857Y-13152787D01*
X40437337Y-13097633D01*
X40479365Y-12959085D01*
X40490000Y-12851105D01*
X40493556Y-12815000D01*
X40490000Y-12778895D01*
X40490000Y-9148439D01*
X40560258Y-9062829D01*
X40633084Y-8926582D01*
X40677929Y-8778745D01*
X40693072Y-8625000D01*
X40693072Y-6875000D01*
X40677929Y-6721255D01*
X40633084Y-6573418D01*
X40560258Y-6437171D01*
X40462251Y-6317749D01*
X40342829Y-6219742D01*
X40206582Y-6146916D01*
X40058745Y-6102071D01*
X39905000Y-6086928D01*
X39605000Y-6086928D01*
X39451255Y-6102071D01*
X39303418Y-6146916D01*
X39167171Y-6219742D01*
X39120000Y-6258454D01*
X39072829Y-6219742D01*
X38936582Y-6146916D01*
X38788745Y-6102071D01*
X38635000Y-6086928D01*
X38335000Y-6086928D01*
X38181255Y-6102071D01*
X38033418Y-6146916D01*
X37897171Y-6219742D01*
X37850000Y-6258454D01*
X37802829Y-6219742D01*
X37666582Y-6146916D01*
X37518745Y-6102071D01*
X37365000Y-6086928D01*
X37065000Y-6086928D01*
X36911255Y-6102071D01*
X36763418Y-6146916D01*
X36627171Y-6219742D01*
X36580000Y-6258454D01*
X36532829Y-6219742D01*
X36396582Y-6146916D01*
X36248745Y-6102071D01*
X36095000Y-6086928D01*
X35795000Y-6086928D01*
X35641255Y-6102071D01*
X35493418Y-6146916D01*
X35357171Y-6219742D01*
X35310000Y-6258454D01*
X35262829Y-6219742D01*
X35126582Y-6146916D01*
X34978745Y-6102071D01*
X34825000Y-6086928D01*
X34525000Y-6086928D01*
X34371255Y-6102071D01*
X34223418Y-6146916D01*
X34087171Y-6219742D01*
X34040000Y-6258454D01*
X33992829Y-6219742D01*
X33856582Y-6146916D01*
X33708745Y-6102071D01*
X33555000Y-6086928D01*
X33255000Y-6086928D01*
X33101255Y-6102071D01*
X32953418Y-6146916D01*
X32817171Y-6219742D01*
X32770000Y-6258454D01*
X32722829Y-6219742D01*
X32586582Y-6146916D01*
X32438745Y-6102071D01*
X32285000Y-6086928D01*
X31985000Y-6086928D01*
X31831255Y-6102071D01*
X31683418Y-6146916D01*
X31547171Y-6219742D01*
X31500000Y-6258454D01*
X31452829Y-6219742D01*
X31316582Y-6146916D01*
X31168745Y-6102071D01*
X31015000Y-6086928D01*
X30715000Y-6086928D01*
X30561255Y-6102071D01*
X30413418Y-6146916D01*
X30277171Y-6219742D01*
X30230000Y-6258454D01*
X30182829Y-6219742D01*
X30046582Y-6146916D01*
X29898745Y-6102071D01*
X29745000Y-6086928D01*
X29445000Y-6086928D01*
X29291255Y-6102071D01*
X29143418Y-6146916D01*
X29007171Y-6219742D01*
X28960000Y-6258454D01*
X28912829Y-6219742D01*
X28776582Y-6146916D01*
X28628745Y-6102071D01*
X28475000Y-6086928D01*
X28175000Y-6086928D01*
X28021255Y-6102071D01*
X27873418Y-6146916D01*
X27737171Y-6219742D01*
X27690000Y-6258454D01*
X27642829Y-6219742D01*
X27506582Y-6146916D01*
X27358745Y-6102071D01*
X27205000Y-6086928D01*
X26905000Y-6086928D01*
X26751255Y-6102071D01*
X26603418Y-6146916D01*
X26467171Y-6219742D01*
X26420000Y-6258454D01*
X26372829Y-6219742D01*
X26236582Y-6146916D01*
X26088745Y-6102071D01*
X25935000Y-6086928D01*
X25635000Y-6086928D01*
X25481255Y-6102071D01*
X25333418Y-6146916D01*
X25197171Y-6219742D01*
X25150000Y-6258454D01*
X25102829Y-6219742D01*
X24966582Y-6146916D01*
X24818745Y-6102071D01*
X24665000Y-6086928D01*
X24365000Y-6086928D01*
X24211255Y-6102071D01*
X24063418Y-6146916D01*
X23927171Y-6219742D01*
X23880000Y-6258454D01*
X23832829Y-6219742D01*
X23696582Y-6146916D01*
X23548745Y-6102071D01*
X23395000Y-6086928D01*
X23095000Y-6086928D01*
X22941255Y-6102071D01*
X22793418Y-6146916D01*
X22657171Y-6219742D01*
X22537749Y-6317749D01*
X22439742Y-6437171D01*
X22366916Y-6573418D01*
X22322071Y-6721255D01*
X22306928Y-6875000D01*
X22306928Y-6990000D01*
X22128922Y-6990000D01*
X22091599Y-6986324D01*
X22054276Y-6990000D01*
X22054267Y-6990000D01*
X21942614Y-7000997D01*
X21799353Y-7044454D01*
X21667324Y-7115026D01*
X21600408Y-7169942D01*
X21468386Y-7061595D01*
X21314850Y-6979528D01*
X21148254Y-6928992D01*
X20975000Y-6911928D01*
X20025000Y-6911928D01*
X19851746Y-6928992D01*
X19685150Y-6979528D01*
X19531614Y-7061595D01*
X19397038Y-7172038D01*
X19300230Y-7290000D01*
X16307325Y-7290000D01*
X16270000Y-7286324D01*
X16232675Y-7290000D01*
X16107333Y-7290000D01*
X16070000Y-7286323D01*
X16032667Y-7290000D01*
X15897322Y-7290000D01*
X15860000Y-7286324D01*
X15822678Y-7290000D01*
X15642976Y-7290000D01*
X15587829Y-7244742D01*
X15451582Y-7171916D01*
X15303745Y-7127071D01*
X15150000Y-7111928D01*
X14125000Y-7111928D01*
X13971255Y-7127071D01*
X13823418Y-7171916D01*
X13687171Y-7244742D01*
X13567749Y-7342749D01*
X13500000Y-7425301D01*
X13432251Y-7342749D01*
X13312829Y-7244742D01*
X13176582Y-7171916D01*
X13028745Y-7127071D01*
X12875000Y-7111928D01*
X11850000Y-7111928D01*
X11696255Y-7127071D01*
X11548418Y-7171916D01*
X11412171Y-7244742D01*
X11292749Y-7342749D01*
X11194742Y-7462171D01*
X11121916Y-7598418D01*
X11077071Y-7746255D01*
X11061928Y-7900000D01*
X11061928Y-8200000D01*
X11077071Y-8353745D01*
X11121916Y-8501582D01*
X11134433Y-8525000D01*
X11121916Y-8548418D01*
X11077071Y-8696255D01*
X11061928Y-8850000D01*
X11061928Y-9150000D01*
X11077071Y-9303745D01*
X11109266Y-9409881D01*
X11074188Y-9525518D01*
X11061928Y-9650000D01*
X11065000Y-9664250D01*
X11223750Y-9823000D01*
X11445364Y-9823000D01*
X11548418Y-9878084D01*
X11696255Y-9922929D01*
X11850000Y-9938072D01*
X12509500Y-9938072D01*
X12509500Y-10077000D01*
X12489500Y-10077000D01*
X12489500Y-10726250D01*
X12648250Y-10885000D01*
X12662934Y-10885120D01*
X10725808Y-12822246D01*
X10697763Y-12845262D01*
X10605914Y-12957180D01*
X10556454Y-13049714D01*
X10537664Y-13084867D01*
X10495635Y-13223415D01*
X10481444Y-13367500D01*
X10485001Y-13403615D01*
X10485000Y-15703895D01*
X10481444Y-15740000D01*
X10495635Y-15884085D01*
X10499806Y-15897833D01*
X10537663Y-16022632D01*
X10605913Y-16150319D01*
X10697762Y-16262237D01*
X10725808Y-16285254D01*
X10934741Y-16494187D01*
X10957762Y-16522238D01*
X11065780Y-16610887D01*
X11061928Y-16650000D01*
X11065000Y-16664250D01*
X11223750Y-16823000D01*
X11445364Y-16823000D01*
X11548418Y-16878084D01*
X11696255Y-16922929D01*
X11850000Y-16938072D01*
X12509500Y-16938072D01*
X12509500Y-17077000D01*
X12489500Y-17077000D01*
X12489500Y-17726250D01*
X12648250Y-17885000D01*
X12747501Y-17885809D01*
X12747501Y-18802552D01*
X9575808Y-21974246D01*
X9547762Y-21997263D01*
X9455913Y-22109181D01*
X9387663Y-22236868D01*
X9379463Y-22263900D01*
X9345635Y-22375415D01*
X9331444Y-22519500D01*
X9335000Y-22555605D01*
X9335000Y-25501928D01*
X9220000Y-25501928D01*
X9095518Y-25514188D01*
X8975820Y-25550498D01*
X8865506Y-25609463D01*
X8800000Y-25663222D01*
X8734494Y-25609463D01*
X8624180Y-25550498D01*
X8504482Y-25514188D01*
X8380000Y-25501928D01*
X6680000Y-25501928D01*
X6555518Y-25514188D01*
X6435820Y-25550498D01*
X6325506Y-25609463D01*
X6228815Y-25688815D01*
X6149463Y-25785506D01*
X6090498Y-25895820D01*
X6054188Y-26015518D01*
X6041928Y-26140000D01*
X6041928Y-33290000D01*
X5710000Y-33290000D01*
X5710000Y-25034876D01*
X5713435Y-25000000D01*
X5699727Y-24860816D01*
X5659128Y-24726980D01*
X5593200Y-24603637D01*
X5504475Y-24495525D01*
X5396363Y-24406800D01*
X5273020Y-24340872D01*
X5139184Y-24300273D01*
X5034877Y-24290000D01*
X5000000Y-24286565D01*
X4965123Y-24290000D01*
X710000Y-24290000D01*
X710000Y-17250000D01*
X11061928Y-17250000D01*
X11074188Y-17374482D01*
X11110498Y-17494180D01*
X11169463Y-17604494D01*
X11248815Y-17701185D01*
X11345506Y-17780537D01*
X11455820Y-17839502D01*
X11575518Y-17875812D01*
X11700000Y-17888072D01*
X12076750Y-17885000D01*
X12235500Y-17726250D01*
X12235500Y-17077000D01*
X11223750Y-17077000D01*
X11065000Y-17235750D01*
X11061928Y-17250000D01*
X710000Y-17250000D01*
X710000Y-10250000D01*
X11061928Y-10250000D01*
X11074188Y-10374482D01*
X11110498Y-10494180D01*
X11169463Y-10604494D01*
X11248815Y-10701185D01*
X11345506Y-10780537D01*
X11455820Y-10839502D01*
X11575518Y-10875812D01*
X11700000Y-10888072D01*
X12076750Y-10885000D01*
X12235500Y-10726250D01*
X12235500Y-10077000D01*
X11223750Y-10077000D01*
X11065000Y-10235750D01*
X11061928Y-10250000D01*
X710000Y-10250000D01*
X710000Y-710000D01*
X50790001Y-710000D01*
X50790000Y-22705908D01*
G04 #@! TA.AperFunction,Conductor*
D15*
G36*
X50790000Y-22705908D02*
G01*
X49205909Y-24290000D01*
X45534877Y-24290000D01*
X45500000Y-24286565D01*
X45465123Y-24290000D01*
X45360816Y-24300273D01*
X45226980Y-24340872D01*
X45103637Y-24406800D01*
X44995525Y-24495525D01*
X44906800Y-24603637D01*
X44840872Y-24726980D01*
X44800273Y-24860816D01*
X44786565Y-25000000D01*
X44790000Y-25034876D01*
X44790001Y-33290000D01*
X44578072Y-33290000D01*
X44578072Y-26140000D01*
X44565812Y-26015518D01*
X44529502Y-25895820D01*
X44470537Y-25785506D01*
X44391185Y-25688815D01*
X44294494Y-25609463D01*
X44184180Y-25550498D01*
X44064482Y-25514188D01*
X43940000Y-25501928D01*
X43698217Y-25501928D01*
X43612238Y-25397162D01*
X43584193Y-25374146D01*
X36120597Y-17910551D01*
X36248745Y-17897929D01*
X36396582Y-17853084D01*
X36532829Y-17780258D01*
X36580000Y-17741546D01*
X36627171Y-17780258D01*
X36763418Y-17853084D01*
X36911255Y-17897929D01*
X37065000Y-17913072D01*
X37365000Y-17913072D01*
X37518745Y-17897929D01*
X37666582Y-17853084D01*
X37802829Y-17780258D01*
X37850000Y-17741546D01*
X37897171Y-17780258D01*
X38033418Y-17853084D01*
X38181255Y-17897929D01*
X38335000Y-17913072D01*
X38635000Y-17913072D01*
X38788745Y-17897929D01*
X38936582Y-17853084D01*
X39070936Y-17781270D01*
X39100506Y-17805537D01*
X39210820Y-17864502D01*
X39330518Y-17900812D01*
X39455000Y-17913072D01*
X39469250Y-17910000D01*
X39628000Y-17751250D01*
X39628000Y-16377000D01*
X39882000Y-16377000D01*
X39882000Y-17751250D01*
X40040750Y-17910000D01*
X40055000Y-17913072D01*
X40179482Y-17900812D01*
X40299180Y-17864502D01*
X40409494Y-17805537D01*
X40506185Y-17726185D01*
X40585537Y-17629494D01*
X40644502Y-17519180D01*
X40680812Y-17399482D01*
X40693072Y-17275000D01*
X40690000Y-16535750D01*
X40531250Y-16377000D01*
X39882000Y-16377000D01*
X39628000Y-16377000D01*
X39608000Y-16377000D01*
X39608000Y-16123000D01*
X39628000Y-16123000D01*
X39628000Y-14748750D01*
X39882000Y-14748750D01*
X39882000Y-16123000D01*
X40531250Y-16123000D01*
X40690000Y-15964250D01*
X40693072Y-15225000D01*
X40680812Y-15100518D01*
X40644502Y-14980820D01*
X40585537Y-14870506D01*
X40506185Y-14773815D01*
X40409494Y-14694463D01*
X40299180Y-14635498D01*
X40179482Y-14599188D01*
X40055000Y-14586928D01*
X40040750Y-14590000D01*
X39882000Y-14748750D01*
X39628000Y-14748750D01*
X39469250Y-14590000D01*
X39455000Y-14586928D01*
X39330518Y-14599188D01*
X39210820Y-14635498D01*
X39192463Y-14645310D01*
X39167337Y-14562480D01*
X39099087Y-14434793D01*
X39007238Y-14322875D01*
X38979187Y-14299854D01*
X38974322Y-14294989D01*
X38964798Y-14247107D01*
X38899969Y-14090597D01*
X38805852Y-13949742D01*
X38741510Y-13885400D01*
X38851514Y-13885400D01*
X38940595Y-14018718D01*
X39060382Y-14138505D01*
X39201237Y-14232622D01*
X39357747Y-14297451D01*
X39523897Y-14330500D01*
X39693303Y-14330500D01*
X39859453Y-14297451D01*
X40015963Y-14232622D01*
X40156818Y-14138505D01*
X40276605Y-14018718D01*
X40370722Y-13877863D01*
X40435551Y-13721353D01*
X40468600Y-13555203D01*
X40468600Y-13385797D01*
X40435551Y-13219647D01*
X40407857Y-13152787D01*
X40437337Y-13097633D01*
X40479365Y-12959085D01*
X40490000Y-12851105D01*
X40493556Y-12815000D01*
X40490000Y-12778895D01*
X40490000Y-9148439D01*
X40560258Y-9062829D01*
X40633084Y-8926582D01*
X40677929Y-8778745D01*
X40693072Y-8625000D01*
X40693072Y-6875000D01*
X40677929Y-6721255D01*
X40633084Y-6573418D01*
X40560258Y-6437171D01*
X40462251Y-6317749D01*
X40342829Y-6219742D01*
X40206582Y-6146916D01*
X40058745Y-6102071D01*
X39905000Y-6086928D01*
X39605000Y-6086928D01*
X39451255Y-6102071D01*
X39303418Y-6146916D01*
X39167171Y-6219742D01*
X39120000Y-6258454D01*
X39072829Y-6219742D01*
X38936582Y-6146916D01*
X38788745Y-6102071D01*
X38635000Y-6086928D01*
X38335000Y-6086928D01*
X38181255Y-6102071D01*
X38033418Y-6146916D01*
X37897171Y-6219742D01*
X37850000Y-6258454D01*
X37802829Y-6219742D01*
X37666582Y-6146916D01*
X37518745Y-6102071D01*
X37365000Y-6086928D01*
X37065000Y-6086928D01*
X36911255Y-6102071D01*
X36763418Y-6146916D01*
X36627171Y-6219742D01*
X36580000Y-6258454D01*
X36532829Y-6219742D01*
X36396582Y-6146916D01*
X36248745Y-6102071D01*
X36095000Y-6086928D01*
X35795000Y-6086928D01*
X35641255Y-6102071D01*
X35493418Y-6146916D01*
X35357171Y-6219742D01*
X35310000Y-6258454D01*
X35262829Y-6219742D01*
X35126582Y-6146916D01*
X34978745Y-6102071D01*
X34825000Y-6086928D01*
X34525000Y-6086928D01*
X34371255Y-6102071D01*
X34223418Y-6146916D01*
X34087171Y-6219742D01*
X34040000Y-6258454D01*
X33992829Y-6219742D01*
X33856582Y-6146916D01*
X33708745Y-6102071D01*
X33555000Y-6086928D01*
X33255000Y-6086928D01*
X33101255Y-6102071D01*
X32953418Y-6146916D01*
X32817171Y-6219742D01*
X32770000Y-6258454D01*
X32722829Y-6219742D01*
X32586582Y-6146916D01*
X32438745Y-6102071D01*
X32285000Y-6086928D01*
X31985000Y-6086928D01*
X31831255Y-6102071D01*
X31683418Y-6146916D01*
X31547171Y-6219742D01*
X31500000Y-6258454D01*
X31452829Y-6219742D01*
X31316582Y-6146916D01*
X31168745Y-6102071D01*
X31015000Y-6086928D01*
X30715000Y-6086928D01*
X30561255Y-6102071D01*
X30413418Y-6146916D01*
X30277171Y-6219742D01*
X30230000Y-6258454D01*
X30182829Y-6219742D01*
X30046582Y-6146916D01*
X29898745Y-6102071D01*
X29745000Y-6086928D01*
X29445000Y-6086928D01*
X29291255Y-6102071D01*
X29143418Y-6146916D01*
X29007171Y-6219742D01*
X28960000Y-6258454D01*
X28912829Y-6219742D01*
X28776582Y-6146916D01*
X28628745Y-6102071D01*
X28475000Y-6086928D01*
X28175000Y-6086928D01*
X28021255Y-6102071D01*
X27873418Y-6146916D01*
X27737171Y-6219742D01*
X27690000Y-6258454D01*
X27642829Y-6219742D01*
X27506582Y-6146916D01*
X27358745Y-6102071D01*
X27205000Y-6086928D01*
X26905000Y-6086928D01*
X26751255Y-6102071D01*
X26603418Y-6146916D01*
X26467171Y-6219742D01*
X26420000Y-6258454D01*
X26372829Y-6219742D01*
X26236582Y-6146916D01*
X26088745Y-6102071D01*
X25935000Y-6086928D01*
X25635000Y-6086928D01*
X25481255Y-6102071D01*
X25333418Y-6146916D01*
X25197171Y-6219742D01*
X25150000Y-6258454D01*
X25102829Y-6219742D01*
X24966582Y-6146916D01*
X24818745Y-6102071D01*
X24665000Y-6086928D01*
X24365000Y-6086928D01*
X24211255Y-6102071D01*
X24063418Y-6146916D01*
X23927171Y-6219742D01*
X23880000Y-6258454D01*
X23832829Y-6219742D01*
X23696582Y-6146916D01*
X23548745Y-6102071D01*
X23395000Y-6086928D01*
X23095000Y-6086928D01*
X22941255Y-6102071D01*
X22793418Y-6146916D01*
X22657171Y-6219742D01*
X22537749Y-6317749D01*
X22439742Y-6437171D01*
X22366916Y-6573418D01*
X22322071Y-6721255D01*
X22306928Y-6875000D01*
X22306928Y-6990000D01*
X22128922Y-6990000D01*
X22091599Y-6986324D01*
X22054276Y-6990000D01*
X22054267Y-6990000D01*
X21942614Y-7000997D01*
X21799353Y-7044454D01*
X21667324Y-7115026D01*
X21600408Y-7169942D01*
X21468386Y-7061595D01*
X21314850Y-6979528D01*
X21148254Y-6928992D01*
X20975000Y-6911928D01*
X20025000Y-6911928D01*
X19851746Y-6928992D01*
X19685150Y-6979528D01*
X19531614Y-7061595D01*
X19397038Y-7172038D01*
X19300230Y-7290000D01*
X16307325Y-7290000D01*
X16270000Y-7286324D01*
X16232675Y-7290000D01*
X16107333Y-7290000D01*
X16070000Y-7286323D01*
X16032667Y-7290000D01*
X15897322Y-7290000D01*
X15860000Y-7286324D01*
X15822678Y-7290000D01*
X15642976Y-7290000D01*
X15587829Y-7244742D01*
X15451582Y-7171916D01*
X15303745Y-7127071D01*
X15150000Y-7111928D01*
X14125000Y-7111928D01*
X13971255Y-7127071D01*
X13823418Y-7171916D01*
X13687171Y-7244742D01*
X13567749Y-7342749D01*
X13500000Y-7425301D01*
X13432251Y-7342749D01*
X13312829Y-7244742D01*
X13176582Y-7171916D01*
X13028745Y-7127071D01*
X12875000Y-7111928D01*
X11850000Y-7111928D01*
X11696255Y-7127071D01*
X11548418Y-7171916D01*
X11412171Y-7244742D01*
X11292749Y-7342749D01*
X11194742Y-7462171D01*
X11121916Y-7598418D01*
X11077071Y-7746255D01*
X11061928Y-7900000D01*
X11061928Y-8200000D01*
X11077071Y-8353745D01*
X11121916Y-8501582D01*
X11134433Y-8525000D01*
X11121916Y-8548418D01*
X11077071Y-8696255D01*
X11061928Y-8850000D01*
X11061928Y-9150000D01*
X11077071Y-9303745D01*
X11109266Y-9409881D01*
X11074188Y-9525518D01*
X11061928Y-9650000D01*
X11065000Y-9664250D01*
X11223750Y-9823000D01*
X11445364Y-9823000D01*
X11548418Y-9878084D01*
X11696255Y-9922929D01*
X11850000Y-9938072D01*
X12509500Y-9938072D01*
X12509500Y-10077000D01*
X12489500Y-10077000D01*
X12489500Y-10726250D01*
X12648250Y-10885000D01*
X12662934Y-10885120D01*
X10725808Y-12822246D01*
X10697763Y-12845262D01*
X10605914Y-12957180D01*
X10556454Y-13049714D01*
X10537664Y-13084867D01*
X10495635Y-13223415D01*
X10481444Y-13367500D01*
X10485001Y-13403615D01*
X10485000Y-15703895D01*
X10481444Y-15740000D01*
X10495635Y-15884085D01*
X10499806Y-15897833D01*
X10537663Y-16022632D01*
X10605913Y-16150319D01*
X10697762Y-16262237D01*
X10725808Y-16285254D01*
X10934741Y-16494187D01*
X10957762Y-16522238D01*
X11065780Y-16610887D01*
X11061928Y-16650000D01*
X11065000Y-16664250D01*
X11223750Y-16823000D01*
X11445364Y-16823000D01*
X11548418Y-16878084D01*
X11696255Y-16922929D01*
X11850000Y-16938072D01*
X12509500Y-16938072D01*
X12509500Y-17077000D01*
X12489500Y-17077000D01*
X12489500Y-17726250D01*
X12648250Y-17885000D01*
X12747501Y-17885809D01*
X12747501Y-18802552D01*
X9575808Y-21974246D01*
X9547762Y-21997263D01*
X9455913Y-22109181D01*
X9387663Y-22236868D01*
X9379463Y-22263900D01*
X9345635Y-22375415D01*
X9331444Y-22519500D01*
X9335000Y-22555605D01*
X9335000Y-25501928D01*
X9220000Y-25501928D01*
X9095518Y-25514188D01*
X8975820Y-25550498D01*
X8865506Y-25609463D01*
X8800000Y-25663222D01*
X8734494Y-25609463D01*
X8624180Y-25550498D01*
X8504482Y-25514188D01*
X8380000Y-25501928D01*
X6680000Y-25501928D01*
X6555518Y-25514188D01*
X6435820Y-25550498D01*
X6325506Y-25609463D01*
X6228815Y-25688815D01*
X6149463Y-25785506D01*
X6090498Y-25895820D01*
X6054188Y-26015518D01*
X6041928Y-26140000D01*
X6041928Y-33290000D01*
X5710000Y-33290000D01*
X5710000Y-25034876D01*
X5713435Y-25000000D01*
X5699727Y-24860816D01*
X5659128Y-24726980D01*
X5593200Y-24603637D01*
X5504475Y-24495525D01*
X5396363Y-24406800D01*
X5273020Y-24340872D01*
X5139184Y-24300273D01*
X5034877Y-24290000D01*
X5000000Y-24286565D01*
X4965123Y-24290000D01*
X710000Y-24290000D01*
X710000Y-17250000D01*
X11061928Y-17250000D01*
X11074188Y-17374482D01*
X11110498Y-17494180D01*
X11169463Y-17604494D01*
X11248815Y-17701185D01*
X11345506Y-17780537D01*
X11455820Y-17839502D01*
X11575518Y-17875812D01*
X11700000Y-17888072D01*
X12076750Y-17885000D01*
X12235500Y-17726250D01*
X12235500Y-17077000D01*
X11223750Y-17077000D01*
X11065000Y-17235750D01*
X11061928Y-17250000D01*
X710000Y-17250000D01*
X710000Y-10250000D01*
X11061928Y-10250000D01*
X11074188Y-10374482D01*
X11110498Y-10494180D01*
X11169463Y-10604494D01*
X11248815Y-10701185D01*
X11345506Y-10780537D01*
X11455820Y-10839502D01*
X11575518Y-10875812D01*
X11700000Y-10888072D01*
X12076750Y-10885000D01*
X12235500Y-10726250D01*
X12235500Y-10077000D01*
X11223750Y-10077000D01*
X11065000Y-10235750D01*
X11061928Y-10250000D01*
X710000Y-10250000D01*
X710000Y-710000D01*
X50790001Y-710000D01*
X50790000Y-22705908D01*
G37*
G04 #@! TD.AperFunction*
D14*
X19397038Y-8927962D02*
X19403594Y-8933342D01*
X19323815Y-8998815D01*
X19244463Y-9095506D01*
X19185498Y-9205820D01*
X19149188Y-9325518D01*
X19136928Y-9450000D01*
X19140000Y-9664250D01*
X19298750Y-9823000D01*
X20373000Y-9823000D01*
X20373000Y-9803000D01*
X20627000Y-9803000D01*
X20627000Y-9823000D01*
X20647000Y-9823000D01*
X20647000Y-10077000D01*
X20627000Y-10077000D01*
X20627000Y-10097000D01*
X20373000Y-10097000D01*
X20373000Y-10077000D01*
X19298750Y-10077000D01*
X19140000Y-10235750D01*
X19136928Y-10450000D01*
X19149188Y-10574482D01*
X19185498Y-10694180D01*
X19244463Y-10804494D01*
X19323815Y-10901185D01*
X19420506Y-10980537D01*
X19530820Y-11039502D01*
X19650518Y-11075812D01*
X19775000Y-11088072D01*
X19869643Y-11087410D01*
X16761908Y-14195146D01*
X16733862Y-14218163D01*
X16642013Y-14330081D01*
X16573763Y-14457768D01*
X16550255Y-14535263D01*
X16531735Y-14596315D01*
X16517544Y-14740400D01*
X16521100Y-14776505D01*
X16521100Y-15298053D01*
X15635384Y-16183769D01*
X15587829Y-16144742D01*
X15451582Y-16071916D01*
X15303745Y-16027071D01*
X15150000Y-16011928D01*
X14217500Y-16011928D01*
X14217500Y-15988072D01*
X15150000Y-15988072D01*
X15303745Y-15972929D01*
X15451582Y-15928084D01*
X15587829Y-15855258D01*
X15707251Y-15757251D01*
X15805258Y-15637829D01*
X15878084Y-15501582D01*
X15922929Y-15353745D01*
X15938072Y-15200000D01*
X15938072Y-14900000D01*
X15922929Y-14746255D01*
X15878084Y-14598418D01*
X15805258Y-14462171D01*
X15707251Y-14342749D01*
X15587829Y-14244742D01*
X15451582Y-14171916D01*
X15397500Y-14155511D01*
X15397500Y-13983922D01*
X15401176Y-13946599D01*
X15397500Y-13909276D01*
X15397500Y-13909267D01*
X15391056Y-13843845D01*
X16581003Y-12653899D01*
X16610001Y-12630101D01*
X16704974Y-12514376D01*
X16775546Y-12382347D01*
X16819003Y-12239086D01*
X16830000Y-12127433D01*
X16830000Y-12127424D01*
X16833676Y-12090101D01*
X16830000Y-12052778D01*
X16830000Y-8810000D01*
X19300230Y-8810000D01*
X19397038Y-8927962D01*
G04 #@! TA.AperFunction,Conductor*
D15*
G36*
X19397038Y-8927962D02*
G01*
X19403594Y-8933342D01*
X19323815Y-8998815D01*
X19244463Y-9095506D01*
X19185498Y-9205820D01*
X19149188Y-9325518D01*
X19136928Y-9450000D01*
X19140000Y-9664250D01*
X19298750Y-9823000D01*
X20373000Y-9823000D01*
X20373000Y-9803000D01*
X20627000Y-9803000D01*
X20627000Y-9823000D01*
X20647000Y-9823000D01*
X20647000Y-10077000D01*
X20627000Y-10077000D01*
X20627000Y-10097000D01*
X20373000Y-10097000D01*
X20373000Y-10077000D01*
X19298750Y-10077000D01*
X19140000Y-10235750D01*
X19136928Y-10450000D01*
X19149188Y-10574482D01*
X19185498Y-10694180D01*
X19244463Y-10804494D01*
X19323815Y-10901185D01*
X19420506Y-10980537D01*
X19530820Y-11039502D01*
X19650518Y-11075812D01*
X19775000Y-11088072D01*
X19869643Y-11087410D01*
X16761908Y-14195146D01*
X16733862Y-14218163D01*
X16642013Y-14330081D01*
X16573763Y-14457768D01*
X16550255Y-14535263D01*
X16531735Y-14596315D01*
X16517544Y-14740400D01*
X16521100Y-14776505D01*
X16521100Y-15298053D01*
X15635384Y-16183769D01*
X15587829Y-16144742D01*
X15451582Y-16071916D01*
X15303745Y-16027071D01*
X15150000Y-16011928D01*
X14217500Y-16011928D01*
X14217500Y-15988072D01*
X15150000Y-15988072D01*
X15303745Y-15972929D01*
X15451582Y-15928084D01*
X15587829Y-15855258D01*
X15707251Y-15757251D01*
X15805258Y-15637829D01*
X15878084Y-15501582D01*
X15922929Y-15353745D01*
X15938072Y-15200000D01*
X15938072Y-14900000D01*
X15922929Y-14746255D01*
X15878084Y-14598418D01*
X15805258Y-14462171D01*
X15707251Y-14342749D01*
X15587829Y-14244742D01*
X15451582Y-14171916D01*
X15397500Y-14155511D01*
X15397500Y-13983922D01*
X15401176Y-13946599D01*
X15397500Y-13909276D01*
X15397500Y-13909267D01*
X15391056Y-13843845D01*
X16581003Y-12653899D01*
X16610001Y-12630101D01*
X16704974Y-12514376D01*
X16775546Y-12382347D01*
X16819003Y-12239086D01*
X16830000Y-12127433D01*
X16830000Y-12127424D01*
X16833676Y-12090101D01*
X16830000Y-12052778D01*
X16830000Y-8810000D01*
X19300230Y-8810000D01*
X19397038Y-8927962D01*
G37*
G04 #@! TD.AperFunction*
M02*
